<?xml version="1.0" encoding="UTF-8" standalone="no"?>
<!-- Created with Inkscape (http://www.inkscape.org/) -->

<svg
   version="1.1"
   id="svg67722"
   width="490.66666"
   height="20"
   viewBox="0 0 490.66666 20"
   sodipodi:docname="7doc_banner_1st.svg"
   inkscape:version="1.2 (dc2aedaf03, 2022-05-15)"
   xmlns:inkscape="http://www.inkscape.org/namespaces/inkscape"
   xmlns:sodipodi="http://sodipodi.sourceforge.net/DTD/sodipodi-0.dtd"
   xmlns="http://www.w3.org/2000/svg"
   xmlns:svg="http://www.w3.org/2000/svg">
  <defs
     id="defs67726" />
  <sodipodi:namedview
     id="namedview67724"
     pagecolor="#ffffff"
     bordercolor="#000000"
     borderopacity="0.25"
     inkscape:showpageshadow="2"
     inkscape:pageopacity="0.0"
     inkscape:pagecheckerboard="0"
     inkscape:deskcolor="#d1d1d1"
     showgrid="false"
     inkscape:zoom="2.5224038"
     inkscape:cx="68.188923"
     inkscape:cy="-16.650783"
     inkscape:window-width="1366"
     inkscape:window-height="705"
     inkscape:window-x="-8"
     inkscape:window-y="-8"
     inkscape:window-maximized="1"
     inkscape:current-layer="g67728" />
  <g
     inkscape:groupmode="layer"
     inkscape:label="Image"
     id="g67728">
    <path
       id="rect68350"
       style="fill:#f9ff00;fill-opacity:1;stroke-width:9.05192"
       d="M 83.896484,5 C 83.760625,5 83.650391,5.1102345 83.650391,5.2460938 V 9 H 14.769531 V 5.71875 C 14.769531,5.5975626 14.671971,5.5 14.550781,5.5 H 5.96875 C 5.8475626,5.5 5.75,5.5975626 5.75,5.71875 v 8.482422 c 0,0.121187 0.097563,0.21875 0.21875,0.21875 h 8.582031 c 0.121188,0 0.21875,-0.09756 0.21875,-0.21875 V 11 h 68.88086 v 3.753906 c 0,0.13586 0.110234,0.246094 0.246093,0.246094 h 9.507813 c 0.13586,0 0.246094,-0.110234 0.246094,-0.246094 V 11 H 162.25 v 3.753906 C 162.25,14.889766 162.36023,15 162.49609,15 h 9.50782 c 0.13586,0 0.24609,-0.110234 0.24609,-0.246094 V 11 h 68 v 3.753906 C 240.25,14.889766 240.36023,15 240.49609,15 h 9.50782 c 0.13586,0 0.24609,-0.110234 0.24609,-0.246094 V 11 h 68.15039 v 3.753906 c 0,0.13586 0.11023,0.246094 0.24609,0.246094 h 9.50782 c 0.13586,0 0.24609,-0.110234 0.24609,-0.246094 V 11 H 397 v 3.753906 C 397,14.889766 397.11023,15 397.24609,15 h 9.50782 C 406.88977,15 407,14.889766 407,14.753906 V 11 h 68.5 v 3.753906 C 475.5,14.889766 475.61023,15 475.74609,15 h 9.50782 C 485.38977,15 485.5,14.889766 485.5,14.753906 V 5.2460938 C 485.5,5.1102345 485.38977,5 485.25391,5 h -9.50782 C 475.61023,5 475.5,5.1102345 475.5,5.2460938 V 9 H 407 V 5.2460938 C 407,5.1102345 406.88977,5 406.75391,5 h -9.50782 C 397.11023,5 397,5.1102345 397,5.2460938 V 9 H 328.40039 V 5.2460938 C 328.40039,5.1102339 328.29016,5 328.1543,5 h -9.50782 c -0.13586,0 -0.24609,0.1102339 -0.24609,0.2460938 V 9 H 250.25 V 5.2460938 C 250.25,5.1102345 250.13977,5 250.00391,5 h -9.50782 C 240.36023,5 240.25,5.1102345 240.25,5.2460938 V 9 h -68 V 5.2460938 C 172.25,5.1102346 172.13977,5 172.00391,5 h -9.50782 C 162.36023,5 162.25,5.1102346 162.25,5.2460938 V 9 H 93.650391 V 5.2460938 C 93.650391,5.1102345 93.540157,5 93.404297,5 Z m 1.503907,1.75 h 6.5 v 6.5 h -6.5 z M 164,6.75 h 6.5 v 6.5 H 164 Z m 78,0 h 6.5 v 6.5 H 242 Z m 78.15039,0 h 6.5 v 6.5 h -6.5 z m 78.59961,0 h 6.5 v 6.5 h -6.5 z m 78.5,0 h 6.5 v 6.5 h -6.5 z" />
  </g>
</svg>
