<?xml version="1.0" encoding="UTF-8" standalone="no"?>
<!-- Created with Inkscape (http://www.inkscape.org/) -->

<svg
   version="1.1"
   id="svg67722"
   width="490.66666"
   height="20"
   viewBox="0 0 490.66666 20"
   sodipodi:docname="7doc_banner_6th.svg"
   inkscape:version="1.2 (dc2aedaf03, 2022-05-15)"
   xmlns:inkscape="http://www.inkscape.org/namespaces/inkscape"
   xmlns:sodipodi="http://sodipodi.sourceforge.net/DTD/sodipodi-0.dtd"
   xmlns="http://www.w3.org/2000/svg"
   xmlns:svg="http://www.w3.org/2000/svg">
  <defs
     id="defs67726" />
  <sodipodi:namedview
     id="namedview67724"
     pagecolor="#ffffff"
     bordercolor="#000000"
     borderopacity="0.25"
     inkscape:showpageshadow="2"
     inkscape:pageopacity="0.0"
     inkscape:pagecheckerboard="0"
     inkscape:deskcolor="#d1d1d1"
     showgrid="false"
     inkscape:zoom="20.179231"
     inkscape:cx="409.77776"
     inkscape:cy="6.9378265"
     inkscape:window-width="1366"
     inkscape:window-height="705"
     inkscape:window-x="-8"
     inkscape:window-y="-8"
     inkscape:window-maximized="1"
     inkscape:current-layer="g67728" />
  <g
     inkscape:groupmode="layer"
     inkscape:label="Image"
     id="g67728">
    <path
       id="rect68350"
       style="fill:#f9ff00;fill-opacity:1;stroke-width:9.05192"
       d="M 83.896484,5 C 83.760625,5 83.650391,5.1102345 83.650391,5.2460938 V 9 H 14.769531 V 5.71875 C 14.769531,5.5975626 14.671971,5.5 14.550781,5.5 H 5.96875 C 5.8475626,5.5 5.75,5.5975626 5.75,5.71875 v 8.482422 c 0,0.121187 0.097563,0.21875 0.21875,0.21875 h 8.582031 c 0.121188,0 0.21875,-0.09756 0.21875,-0.21875 V 11 h 68.88086 v 3.753906 c 0,0.13586 0.110234,0.246094 0.246093,0.246094 h 9.507813 c 0.13586,0 0.246094,-0.110234 0.246094,-0.246094 V 11 H 162.25 v 3.753906 C 162.25,14.889766 162.36023,15 162.49609,15 h 9.50782 c 0.13586,0 0.24609,-0.110234 0.24609,-0.246094 V 11 h 68 v 3.753906 C 240.25,14.889766 240.36023,15 240.49609,15 h 9.50782 c 0.13586,0 0.24609,-0.110234 0.24609,-0.246094 V 11 h 68.15039 v 3.753906 c 0,0.13586 0.11023,0.246094 0.24609,0.246094 h 9.50782 c 0.13586,0 0.24609,-0.110234 0.24609,-0.246094 V 11 H 397 v 3.753906 C 397,14.889766 397.11023,15 397.24609,15 h 9.50782 C 406.88977,15 407,14.889766 407,14.753906 V 11 h 68.5 v 3.753906 C 475.5,14.889766 475.61023,15 475.74609,15 h 9.50782 C 485.38977,15 485.5,14.889766 485.5,14.753906 V 5.2460938 C 485.5,5.1102345 485.38977,5 485.25391,5 h -9.50782 C 475.61023,5 475.5,5.1102345 475.5,5.2460938 V 9 H 407 V 5.2460938 C 407,5.1102345 406.88977,5 406.75391,5 h -9.50782 C 397.11023,5 397,5.1102345 397,5.2460938 V 9 H 328.40039 V 5.2460938 C 328.40039,5.1102339 328.29016,5 328.1543,5 h -9.50782 c -0.13586,0 -0.24609,0.1102339 -0.24609,0.2460938 V 9 H 250.25 V 5.2460938 C 250.25,5.1102345 250.13977,5 250.00391,5 h -9.50782 C 240.36023,5 240.25,5.1102345 240.25,5.2460938 V 9 h -68 V 5.2460938 C 172.25,5.1102346 172.13977,5 172.00391,5 h -9.50782 C 162.36023,5 162.25,5.1102346 162.25,5.2460938 V 9 H 93.650391 V 5.2460938 C 93.650391,5.1102345 93.540157,5 93.404297,5 Z m 1.503907,1.75 h 6.5 v 6.5 h -6.5 z M 164,6.75 h 6.5 v 6.5 H 164 Z m 78,0 h 6.5 v 6.5 H 242 Z m 78.15039,0 h 6.5 v 6.5 h -6.5 z m 78.59961,0 h 6.5 v 6.5 h -6.5 z m 78.5,0 h 6.5 v 6.5 h -6.5 z" />
    <path
       style="fill:#f9ff00;fill-opacity:1;stroke-width:0.0991118"
       d="M 85.434377,10.010292 V 6.8387146 h 3.221134 3.221134 v 3.1715774 3.171578 h -3.221134 -3.221134 z"
       id="path73962" />
    <path
       style="fill:#f9ff00;fill-opacity:1"
       id="path74015"
       d="m 86.100737,9.2038372 c -0.01911,0.05003 -0.02589,0.1036982 -0.0427,0.1543731 -0.01949,0.058767 -0.07681,0.1828917 -0.09948,0.2377306 -0.0582,0.1408064 -0.06022,0.152901 -0.111127,0.2978204 -0.04816,0.1258057 -0.08982,0.2537697 -0.130491,0.3821167 -0.01672,0.05276 -0.04424,0.129738 -0.05348,0.185633 -0.0052,0.03145 -0.0054,0.06353 -0.0081,0.0953 -5.63e-4,0.09999 -0.02441,0.197872 -0.03326,0.296963 -0.0072,0.08033 0.0057,0.01664 -0.0072,0.07245 -0.0092,0.02193 -0.0021,0.04629 -0.0077,0.0686 -0.02434,0.09675 -0.116496,0.170734 -0.185454,0.23496 -0.106456,0.08463 -0.227788,0.145655 -0.348099,0.207379 -0.02603,0.01336 -0.05454,0.02282 -0.07793,0.04038 -0.02996,0.0225 -0.05361,0.05235 -0.08041,0.07852 -0.117124,0.153755 -0.205813,0.327562 -0.285476,0.503151 -0.03582,0.09013 -0.06435,0.188843 -0.06812,0.286597 -0.0017,0.04405 0.0082,0.101015 0.01435,0.144799 0.288985,1.272674 0.0073,0.114276 3.215321,1.923087 0.0044,0.0025 0.140378,-0.01643 0.143131,-0.0167 0.04691,-0.0046 0.104435,-0.0061 0.151435,-0.0079 0.130589,0.0041 0.259752,0.01001 0.389725,-0.0053 0.04897,-0.0058 0.09865,0.0033 0.14763,-0.0015 0.02666,-0.0026 0.0524,-0.01169 0.07902,-0.01464 0.03347,-0.0037 0.06751,-8.71e-4 0.100891,-0.0053 0.08598,-0.01145 0.170236,-0.03343 0.255577,-0.04895 0.368916,-0.07245 0.724735,-0.190944 1.088705,-0.28264 0.378313,-0.09609 -0.01424,0.0067 0.341681,-0.09538 0.04716,-0.01353 0.09556,-0.0227 0.142313,-0.03758 0.111034,-0.03534 0.218185,-0.08749 0.325527,-0.132504 0.132533,-0.07425 0.251189,-0.169826 0.380525,-0.248929 0.269176,-0.164633 -0.05171,0.04672 0.217791,-0.134274 0.118351,-0.08713 0.238994,-0.171992 0.344285,-0.275249 0.07457,-0.07313 0.160109,-0.177487 0.230843,-0.253557 0.03848,-0.04138 0.07874,-0.08106 0.118108,-0.121584 0,0 -2.95506,-1.791929 -2.95506,-1.791929 v 0 c -0.03268,0.03859 -0.06265,0.07965 -0.09805,0.115771 -0.169889,0.173385 -0.386261,0.298114 -0.595422,0.416722 -0.03762,0.02054 -0.07524,0.04108 -0.112858,0.06162 -0.03525,0.02119 -0.06972,0.04373 -0.105748,0.06356 -0.133782,0.07364 -0.277421,0.128263 -0.412824,0.198682 -0.181743,0.105939 0.03242,-0.0168 -0.173852,0.094 -0.149052,0.08007 -0.290911,0.173273 -0.45573,0.220757 -0.05495,0.019 -0.108972,0.04093 -0.164851,0.057 -0.144173,0.04145 -0.247212,0.0564 -0.396004,0.07785 -0.09888,0.01425 -0.268232,0.03559 -0.369216,0.04113 -0.05826,0.0032 -0.116678,0.0019 -0.175017,0.0028 -0.338236,-0.01102 0.0096,0.0039 -0.312305,-0.0202 -0.03842,-0.0029 -0.07708,-0.0018 -0.115479,-0.005 -0.04003,-0.0033 -0.07958,-0.01132 -0.11964,-0.01419 -0.05003,-0.0036 -0.100445,0.0044 -0.15047,-2.53e-4 -0.125394,-0.01026 -0.249856,-0.008 -0.375402,-0.01103 -0.07066,-0.01093 -0.139152,-0.0203 -0.200651,-0.06027 -0.0166,-0.01079 -0.06242,-0.04836 -0.04529,-0.03843 3.126282,1.811985 4.254691,1.517009 3.042678,1.81974 -0.01133,-0.0019 -0.104742,-0.02118 -0.11251,-0.02773 -0.03244,-0.02734 -0.0061,-0.09315 -0.01351,-0.126774 0.01153,-0.130432 0.04987,-0.259643 0.156056,-0.344597 0.150038,-0.112362 0.298528,-0.226583 0.443582,-0.345338 0.13347,-0.09883 0.319052,-0.244003 0.402276,-0.390732 0.01197,-0.0211 0.01719,-0.04537 0.02578,-0.06805 0.0072,-0.04112 0.02012,-0.102356 0.01947,-0.144854 -0.0015,-0.09546 -0.03685,-0.203079 -0.02447,-0.301316 0.0062,-0.209551 -0.02534,-0.41901 0.04295,-0.623814 0.05141,-0.129071 0.09105,-0.214516 0.18702,-0.317993 0.02304,-0.02484 0.04578,-0.05111 0.07438,-0.06929 0.03725,-0.02368 0.08728,-0.02054 0.124162,-0.04602 0,0 -3.181818,-1.9498208 -3.181818,-1.9498208 z" />
    <path
       style="fill:#f9ff00;fill-opacity:1"
       id="path74017"
       d="m 92.068758,14.363065 c 0.02499,-0.05904 0.04706,-0.119396 0.07497,-0.177115 0.02873,-0.05944 0.06696,-0.114035 0.09473,-0.173927 0.03424,-0.07385 0.188962,-0.473639 0.213923,-0.533957 0.09702,-0.234435 0.135086,-0.309788 0.240359,-0.535373 0.06884,-0.219644 0.172868,-0.423743 0.242754,-0.642857 0.01617,-0.05068 0.03383,-0.101165 0.04436,-0.153313 0.02489,-0.123266 0.01666,-0.180866 0.01385,-0.305428 -0.04598,-0.28316 -0.06565,-0.568352 -0.05582,-0.854931 0.02172,-0.248234 -0.0063,-0.495356 -0.04487,-0.740302 -0.0038,-0.05913 -0.0055,-0.118433 -0.01144,-0.177382 -0.02317,-0.228969 -0.03939,-0.2163506 -0.04728,-0.4522557 -0.0024,-0.072957 0.0018,-0.1459875 0.0035,-0.2189643 0.01571,-0.6570405 -0.0013,0.2332479 0.01044,-0.4174646 0.02741,-0.2735999 0.05901,-0.5464096 0.09459,-0.8190527 1.82e-4,-0.1694338 0.01821,-0.3379497 0.02942,-0.5067214 -0.0017,-0.096135 -0.0026,-0.049118 0.0021,-0.1410578 0,0 -3.243348,-1.6525645 -3.243348,-1.6525645 v 0 c 0.0046,0.094977 0.0038,0.047245 0.0021,0.1431973 0.01112,0.1787689 0.02873,0.3573019 0.0294,0.5366539 0.03506,0.3047362 0.06667,0.6096147 0.09421,0.9151334 0.01129,0.6689845 -0.0052,-0.2550713 0.01008,0.4278849 0.0017,0.074152 0.006,0.1483625 0.0033,0.2224858 -0.0085,0.2382406 -0.02227,0.1795983 -0.0476,0.4041595 -0.0062,0.055183 -0.0076,0.1108077 -0.01137,0.1662115 -0.04388,0.2398666 -0.06411,0.4820457 -0.02356,0.7244279 0.03612,0.2925385 0.06732,0.5856988 0.08344,0.8800788 0.05192,0.363647 0.115758,0.732077 -1.96e-4,1.091525 -0.02552,0.08492 -0.04406,0.172248 -0.07655,0.25475 -0.101286,0.257211 -0.237175,0.447206 -0.475662,0.590944 -0.04874,0.02938 -0.09907,0.06353 -0.155572,0.07033 -0.04297,0.0052 -0.08306,-0.0244 -0.124584,-0.03661 0,0 3.030251,2.111496 3.030251,2.111496 z" />
    <path
       style="fill:#f9ff00;fill-opacity:1"
       id="path74019"
       d="m 90.219157,5.2741056 c -0.01517,0.042549 -0.02072,0.089889 -0.04552,0.127646 -0.03378,0.051432 -0.08239,0.091555 -0.126588,0.1343713 -0.104595,0.1013228 -0.258957,0.2343289 -0.381685,0.3086237 -0.165819,0.1003807 -0.302418,0.141742 -0.481416,0.2079498 -0.281575,0.082611 -0.564721,0.1714319 -0.859457,0.1855203 -0.145553,0.00283 -0.290644,-0.010634 -0.435781,-0.0194 -0.06879,-0.00489 -0.136701,-0.019562 -0.205306,-0.025611 -0.02412,-0.00213 -0.12339,-0.00304 -0.147049,-0.00832 -0.02072,-0.00463 -0.03925,-0.01619 -0.05888,-0.024284 -0.06821,-0.015931 -0.132177,-0.051757 -0.201602,-0.063188 -0.07945,-0.013082 -0.167953,-0.0049 -0.248045,-0.00459 -0.198749,0.00252 -0.397323,0.00118 -0.59616,0.00504 -0.134229,-0.00697 -0.267757,-0.00165 -0.401773,0.00425 -0.03675,0.00162 -0.07371,-6.656e-4 -0.110317,0.00293 -0.04089,0.00401 -0.08111,0.013231 -0.121663,0.019847 -0.124702,0.026754 -0.248102,0.060082 -0.372736,0.087003 -0.05198,0.011228 -0.163077,0.026569 -0.214898,0.046852 -0.03448,0.013496 -0.06529,0.034944 -0.09794,0.052416 -0.09096,0.072324 -0.19237,0.1364939 -0.271412,0.2229376 -0.08476,0.092693 -0.142914,0.2083252 -0.205872,0.3158053 -0.0874,0.1364456 -0.172769,0.274168 -0.236407,0.4234058 -0.01533,0.035942 -0.03494,0.070588 -0.04433,0.1085161 -0.0119,0.048078 -0.01269,0.098243 -0.01903,0.1473648 -0.0021,0.054259 -0.0028,0.108586 -0.0062,0.1627773 -0.0078,0.1236079 -0.02036,0.1750942 -0.02278,0.2988064 -0.0011,0.054523 0.0029,0.1090359 0.0032,0.1635682 0.0032,0.5575497 -0.0067,-0.226507 5.35e-4,0.2912467 0.02869,0.2462102 0.104549,0.4832309 0.15196,0.7259411 0.02191,0.1121581 0.04468,0.2673377 0.06216,0.3809281 0.03274,0.16675 0.05153,0.3357005 0.07773,0.5034809 0.0074,0.04738 0.01777,0.09429 0.02387,0.141855 0.0097,0.07552 0.01271,0.151758 0.01987,0.227564 0.0081,0.17174 0.01812,0.343502 0.0186,0.515474 0.0078,0.130046 0.01427,0.266919 -0.016,0.395226 -0.0076,0.03239 -0.01896,0.0638 -0.02844,0.0957 0,0 3.338681,1.555206 3.338681,1.555206 v 0 c -0.0205,0.002 -0.04637,0.01994 -0.06151,0.006 -0.01732,-0.01598 -0.0056,-0.04679 -0.0081,-0.07023 -0.01237,-0.115803 -0.01964,-0.232124 -0.0077,-0.348398 -0.0048,-0.199564 -0.0074,-0.399842 -0.0575,-0.594703 -0.07118,-0.316834 -0.181763,-0.623239 -0.245775,-0.941865 -0.03037,-0.137542 -0.0557,-0.240773 -0.07629,-0.380438 -0.03164,-0.214618 -0.0338,-0.432117 -0.0617,-0.647116 -0.006,-0.042456 -0.03415,-0.2367667 -0.03616,-0.2789858 -0.0022,-0.046847 0.002,-0.09378 0.0034,-0.1406564 0.0041,-0.1322975 0.0019,-0.2668883 0.043,-0.3943779 0.01,-0.030793 0.01996,-0.061586 0.02994,-0.092378 0.0073,-0.029941 0.01268,-0.06045 0.02204,-0.089822 0.0425,-0.1333191 0.116339,-0.2552376 0.187965,-0.3742256 0.108066,-0.141319 0.229994,-0.2831047 0.406908,-0.3341935 0.08259,-0.021294 0.160725,-0.053657 0.242692,-0.076264 0.111341,-0.030709 0.22701,-0.043437 0.342312,-0.041169 0.212396,0.00555 0.424567,0.017687 0.637048,0.00983 0.199697,0.00576 0.401109,0.0063 0.598376,0.040836 0.155229,0.033161 0.302602,0.097488 0.462909,0.1049353 0.154918,-5.078e-4 0.308271,0.0223 0.463416,0.021191 0.04373,-0.00294 0.08771,-0.00307 0.131224,-0.00828 0.104646,-0.012519 0.207855,-0.044026 0.308548,-0.073225 0.241019,-0.1076991 0.449365,-0.2685839 0.664851,-0.4191904 0.145695,-0.1054739 0.245844,-0.1851517 0.408923,-0.2702903 0.08973,-0.046847 0.184081,-0.084309 0.277045,-0.1243641 0.05268,-0.022699 0.388011,-0.1623355 0.463259,-0.181471 0.06768,-0.017211 0.138342,-0.019203 0.207513,-0.028805 0,0 -3.085964,-1.9851786 -3.085964,-1.9851786 z" />
    <path
       style="fill:#f9ff00;fill-opacity:1"
       id="path74756"
       d="m 167.30425,5.9706291 c 0.012,0.00789 0.0305,0.010405 0.0359,0.023664 0.0107,0.026053 0.009,0.05592 0.008,0.084087 -0.001,0.1574753 -0.0836,0.3095987 -0.14946,0.4491317 -0.0617,0.1012721 -0.11733,0.2075095 -0.18304,0.30629 -0.0182,0.027441 -0.04,0.052362 -0.0595,0.078958 -0.044,0.060069 -0.076,0.1077586 -0.11823,0.1693381 -0.0964,0.1382955 -0.22367,0.2519872 -0.36926,0.3362346 -0.12418,0.074949 -0.27131,0.082236 -0.41246,0.070538 -0.0246,-0.01262 -0.0482,-0.027267 -0.0737,-0.037861 -0.14804,-0.061458 -0.0529,-1.864e-4 -0.19343,-0.086732 -0.0326,-0.020074 -0.12864,-0.08293 -0.0954,-0.064014 3.35019,1.9039659 3.92427,2.2144576 2.85782,1.6361602 -0.061,-0.04279 -0.12256,-0.089144 -0.18934,-0.1230911 -0.0167,-0.00851 -0.0353,-0.012911 -0.0522,-0.021139 -0.0329,-0.016063 -0.0534,-0.031273 -0.0827,-0.051212 -0.0123,-0.009 -0.0336,-0.012107 -0.0369,-0.02699 -0.006,-0.028246 3.6e-4,-0.059564 0.0125,-0.085786 0.0778,-0.1679668 0.2645,-0.2369423 0.4244,-0.2957582 0.0343,-0.01415 0.0731,-0.020279 0.1028,-0.042449 1.00905,-0.7529087 -3.04841,-1.9999448 -3.09816,-2.027395 -0.0336,-0.01855 -0.0434,0.064062 -0.0709,0.090747 -0.0773,0.074674 -0.18287,0.1302295 -0.27286,0.1846065 -0.22089,0.096569 -0.45228,0.1652316 -0.64966,0.3083883 -0.10091,0.073191 -0.11897,0.09983 -0.20219,0.1874236 -0.0241,0.041583 -0.0595,0.078409 -0.0723,0.1247488 -0.0175,0.063713 -0.0721,0.1622486 -0.0163,0.1975505 1.03529,0.6543743 2.11568,1.2357149 3.19619,1.8123795 0.0444,0.023694 0.0996,-0.01531 0.14847,-0.02734 0.16164,-0.039795 0.23494,-0.074283 0.39474,-0.1356431 0.22138,-0.07572 0.4434,-0.14922 0.66607,-0.2210062 0.0867,-0.027964 0.24781,-0.074452 0.33048,-0.1244604 0.0431,-0.026091 0.0781,-0.063733 0.11718,-0.095599 0.0303,-0.035824 0.0689,-0.066046 0.091,-0.1074722 0.0672,-0.1261715 0.0692,-0.2196648 0.0134,-0.354883 -0.0194,-0.046917 -0.0478,-0.095828 -0.0915,-0.1217133 -3.06082,-1.8147442 -1.94632,-1.7068852 -3.31403,-1.8091006 -0.13871,0.0019 -0.27722,4.44e-5 -0.41526,0.017931 -0.0798,0.010337 -0.15821,0.029258 -0.23737,0.043575 -0.0818,0.014794 -0.16469,0.024343 -0.24552,0.043755 -0.14739,0.035397 -0.31362,0.1004722 -0.45581,0.1523136 -0.27013,0.1401172 -0.58351,0.29442 -0.63816,0.6308655 -0.009,0.052512 4.1e-4,0.1063995 6.1e-4,0.1595992 0.0153,0.046198 0.0252,0.094536 0.0459,0.1385944 0.017,0.036225 0.0315,0.080116 0.0661,0.1001868 1.04857,0.6079608 2.09748,1.2169593 3.1722,1.7773972 0.0434,0.022629 0.0945,-0.028179 0.1375,-0.051475 0.11986,-0.064883 0.15161,-0.1149941 0.24207,-0.2125712 0.10951,-0.1301689 0.16217,-0.2779858 0.1057,-0.4473055 -0.0143,-0.042739 -0.0319,-0.092445 -0.0709,-0.1150914 -3.14972,-1.831416 -2.04742,-2.2032947 -3.3385,-1.7127249 -0.0542,0.016965 -0.11112,0.027078 -0.16272,0.050894 -0.23115,0.1066792 -0.45733,0.3280506 -0.58418,0.5464572 -0.0326,0.056119 -0.0563,0.116957 -0.0844,0.1754354 -0.0115,0.072827 -0.0357,0.1447529 -0.0346,0.218482 0.002,0.1440056 0.0639,0.3950799 0.19754,0.4798687 0.99169,0.6291532 2.00618,1.2234437 3.03783,1.7846816 0.0926,0.050387 0.20922,0.026339 0.31393,0.038753 0.11863,0.014065 0.23738,0.027124 0.35608,0.040685 0.38251,0.01042 0.7926,0.0384 1.14797,-0.1325714 0.0556,-0.026738 0.11093,-0.056295 0.15829,-0.095798 0.0428,-0.035691 0.0725,-0.08463 0.10877,-0.1269451 0.27288,-1.4056201 0.12257,-0.2799801 -3.09676,-2.1179125 -0.0413,-0.023582 -0.094,0.01882 -0.13759,0.037804 -0.0621,0.027026 -0.11934,0.064148 -0.17724,0.099247 -0.14727,0.089264 -0.26159,0.1726957 -0.40321,0.2716133 -0.20138,0.138144 -0.38763,0.30162 -0.50749,0.5184378 -0.10163,0.1838446 -0.15413,0.3949431 -0.20095,0.5976067 0.002,0.065528 -6.9e-4,0.1313737 0.006,0.1965829 0.14355,1.3843743 2.56047,1.8777713 3.26097,2.2225373 0.0739,0.03637 0.10976,-0.122853 0.16465,-0.18428 0.0346,-0.185483 0.0964,-0.364127 0.1396,-0.547399 0.0454,-0.192227 0.0795,-0.397547 0.117,-0.591308 0.0758,-0.3912831 0.0328,-0.127583 0.0874,-0.4980415 0.0245,-0.2666226 0.0434,-0.5579167 -0.0596,-0.8128192 -0.0127,-0.031331 -0.0309,-0.060115 -0.0463,-0.090173 -1.07335,-0.5658783 -2.12521,-1.1745391 -3.22005,-1.6976347 -0.0503,-0.024025 -0.0941,0.059909 -0.13916,0.092657 -0.0466,0.033846 -0.0903,0.071489 -0.13571,0.1069656 -0.12712,0.09939 -0.25599,0.1962646 -0.38219,0.296843 -0.024,0.026478 -0.18115,0.1975432 -0.20378,0.2302434 -0.0297,0.042954 -0.0504,0.091492 -0.0758,0.1371826 -0.0444,0.080056 -0.0962,0.1563352 -0.13379,0.2397805 -0.0198,0.043841 -0.0325,0.090523 -0.0487,0.1357844 -0.0294,0.1853614 -0.11073,0.3530086 -0.18059,0.5246895 -0.0423,0.1040863 -0.0436,0.1178478 -0.0751,0.2245643 -0.0179,0.1384558 -0.0269,0.2790905 -0.0489,0.416996 -0.0214,0.1350148 -0.0614,0.2676727 -0.0907,0.4011015 -0.0507,0.1728906 -0.0857,0.3498026 -0.0892,0.5300986 0.002,0.03028 0.005,0.06051 0.006,0.09085 2.7e-4,0.0139 -0.005,0.148092 -0.005,0.163566 -5.5e-4,0.08563 0.005,0.17114 0.005,0.256794 0.006,0.181646 -5.3e-4,0.362718 0.009,0.544309 -0.0111,0.09274 3.5e-4,0.185717 8.9e-4,0.27839 4.7e-4,0.0809 -0.0117,0.161845 -0.0175,0.242413 -0.0138,0.12731 -0.008,0.255928 -0.0146,0.383786 -0.0122,0.09414 -0.0109,0.188612 -0.0146,0.283196 0.003,0.03295 -0.008,0.06515 -0.008,0.09788 -1e-5,0.01821 0.0103,0.07341 0.012,0.09286 0.003,0.03881 0.004,0.07779 0.008,0.116598 0.0152,0.05562 0.006,0.02975 0.0257,0.07794 0,0 3.34897,1.56629 3.34897,1.56629 v 0 c -0.0173,-0.05573 -0.007,-0.02956 -0.0314,-0.0788 -0.0566,-0.05344 -0.03,-0.0668 -0.051,-0.130332 -0.0231,-0.0698 -0.0117,0.03726 -0.0161,-0.06702 -0.004,-0.09952 -0.003,-0.198953 -0.0146,-0.298092 -0.007,-0.132837 -0.001,-0.266327 -0.0146,-0.398684 -0.006,-0.0865 -0.0181,-0.173529 -0.0176,-0.260332 5.4e-4,-0.09241 0.0121,-0.185141 8.2e-4,-0.277632 0.0101,-0.178874 0.002,-0.357237 0.008,-0.536193 -3.2e-4,-0.08402 0.005,-0.167893 0.004,-0.251883 -2.3e-4,-0.02345 -0.005,-0.142875 -0.005,-0.165548 7.9e-4,-0.02693 0.005,-0.0537 0.007,-0.08054 0.002,-0.178964 -0.0184,-0.357341 -0.0181,-0.536367 0.004,-0.07268 0.01,-0.189188 0.019,-0.260325 0.0227,-0.177853 0.0854,-0.34647 0.1391,-0.516647 0.0336,-0.247459 0.0885,-0.492606 0.18999,-0.721979 0.0472,-0.1089522 0.0843,-0.22601 0.14346,-0.3293227 0.0192,-0.033631 0.0435,-0.064137 0.0651,-0.096297 0.0868,-0.1291579 0.0341,-0.065185 0.14934,-0.1803196 0.10025,-0.093959 0.19762,-0.1880799 0.32842,-0.2393418 0.0402,-0.015759 0.0825,-0.028998 0.12563,-0.031691 0.0378,-0.00236 0.0749,0.011216 0.1123,0.016825 -0.99939,-0.5655805 -1.99879,-1.131161 -2.99819,-1.6967415 0.0968,0.011648 0.14171,0.00492 0.22567,0.066614 0.19413,0.1426506 0.24084,0.4133089 0.28518,0.6310366 0.0305,0.3651008 0.0502,0.6469402 -0.13855,0.9798009 -0.0356,0.062734 -0.0701,0.1299146 -0.12511,0.1765022 -0.0367,0.031054 -0.0913,0.030175 -0.13692,0.045263 -0.23645,-1.2115578 -0.0423,-0.1107787 2.96409,1.6797039 0.0362,0.02154 -0.08,-0.02911 -0.11452,-0.05317 -0.11445,-0.07976 -0.18141,-0.209246 -0.2312,-0.334623 -0.0172,-0.138273 -0.0336,-0.180628 -0.004,-0.322508 0.0358,-0.171219 0.13684,-0.332326 0.26482,-0.449892 0.0495,-0.045486 0.10738,-0.080938 0.16107,-0.1214069 0.22171,-0.090929 0.3649,-0.1677719 0.60414,-0.055735 0.0477,0.022332 0.17192,0.1213843 0.12685,0.09416 -3.02126,-1.8248047 -3.91354,-1.1445313 -2.846,-1.8930358 0.0489,0.0231 0.0889,0.021313 0.0256,0.092854 -0.0269,0.030399 -0.0631,0.05188 -0.0987,0.071386 -0.19935,0.1092126 -0.41735,0.1220585 -0.64009,0.1022724 -0.11124,-0.0238 -0.22574,-0.035608 -0.33372,-0.0714 -0.12314,-0.04082 -0.4662,-0.2257422 -0.35603,-0.1572338 0.82972,0.5159492 1.67878,1.0001386 2.51751,1.5013125 0.0468,0.02794 -0.10023,-0.046151 -0.14158,-0.081602 -0.0326,-0.027915 -0.0593,-0.064552 -0.0753,-0.1043282 -0.0143,-0.035498 -0.009,-0.076078 -0.0128,-0.1141171 0.0349,-0.1047397 0.039,-0.150554 0.11288,-0.2369971 0.13498,-0.1578754 0.32937,-0.1945221 0.52706,-0.184037 1.19839,0.4827231 -0.0712,-0.021184 -2.80331,-1.6487115 -0.026,-0.01547 0.0603,0.00828 0.0905,0.00624 0.0281,-0.00191 0.0552,-0.011249 0.0826,-0.017983 0.0215,-0.00528 0.0424,-0.023484 0.0638,-0.018052 0.0109,0.00277 -0.001,0.022471 -0.002,0.033707 -0.038,0.019378 -0.0336,0.025638 -0.0841,1.211e-4 -0.0245,-0.012372 -0.0917,-0.06018 -0.0679,-0.046533 1.90034,1.089121 4.15061,1.9583431 2.78213,1.6813875 -0.0348,-0.01525 -0.10164,-0.032252 -0.11362,-0.080796 -0.021,-0.084998 0.10672,-0.2176358 0.16044,-0.2619199 0.04,-0.032965 0.0865,-0.057068 0.12978,-0.085602 0.0588,-0.023652 0.11578,-0.052344 0.17635,-0.070956 0.3724,-0.1144382 0.73355,-0.096273 1.10186,0.022074 1.19807,0.5518691 0.028,0.020124 -2.67342,-1.5873717 -0.0283,-0.016868 0.0618,0.028446 0.0948,0.028349 0.003,-8.2e-6 0.11949,-0.047862 0.14259,-0.034671 0.0122,0.00694 0.004,0.027713 0.006,0.041569 -0.19516,0.249644 -0.50287,0.3560915 -0.80548,0.4109974 -0.2034,0.0044 -0.25657,0.020022 -0.45069,-0.029048 -0.0582,-0.01471 -0.22047,-0.092933 -0.16908,-0.061914 0.97945,0.5912314 1.99525,1.1229661 2.95596,1.7441748 0.041,0.026515 -0.0684,0.071915 -0.11137,0.095167 -0.0164,0.00886 -0.0371,-0.00315 -0.0556,-0.00473 0.004,-0.019245 0.003,-0.040192 0.0118,-0.057734 0.0851,-0.168915 0.39015,-0.2979177 0.5497,-0.3710742 0.12992,-0.030876 0.26252,-0.071203 0.39805,-0.070858 0.0488,1.242e-4 0.18591,0.048657 0.14477,0.022358 -1.02812,-0.6572207 -2.10126,-1.2436058 -3.11581,-1.92158 -0.0396,-0.026454 0.0706,-0.069879 0.11642,-0.082752 0.0165,-0.00463 -0.003,0.034134 -0.004,0.051201 -0.0225,0.027732 -0.042,0.05809 -0.0674,0.083195 -0.0822,0.081311 -0.17828,0.1473986 -0.26303,0.2260153 -0.0436,0.04049 -0.0844,0.084025 -0.12636,0.1262413 -0.18152,0.1825212 -0.10905,0.086362 -0.22943,0.2994598 -0.005,0.1022263 -0.0122,0.2085371 0.0479,0.2992406 0.0515,0.077712 0.15459,0.1358121 0.23161,0.1823359 1.03956,0.810724 0.19601,0.1599238 3.23377,1.8699111 0.0355,0.020001 0.0773,0.026187 0.11682,0.036292 0.12771,0.032671 0.25817,0.052885 0.39006,0.038215 0.21012,-0.032758 0.37954,-0.087062 0.54578,-0.2257583 0.0273,-0.022036 0.0565,-0.042007 0.082,-0.066109 0.0429,-0.040452 0.074,-0.089698 0.11023,-0.1355896 0.068,-0.086252 0.13214,-0.1737926 0.1951,-0.2639303 0.0448,-0.061889 0.0882,-0.1189587 0.12747,-0.1847452 0.0836,-0.1402375 0.14542,-0.2914518 0.21748,-0.4375102 0.0431,-0.078875 0.0874,-0.1570644 0.12991,-0.236208 0.0201,-0.037438 0.0365,-0.076994 0.0589,-0.1131097 0.056,-0.0902 0.13178,-0.1665748 0.1948,-0.2514976 0,0 -3.32994,-1.6966876 -3.32994,-1.6966876 z" />
    <path
       style="fill:#f9ff00;fill-opacity:1"
       id="path74758"
       d="m 165.01078,10.721134 c 0.0155,0.02661 0.0361,0.05086 0.0467,0.07982 0.0113,0.03109 0.0129,0.06491 0.0179,0.09761 0.009,0.05873 0.0223,0.178383 0.0246,0.2357 0.002,0.03796 -0.003,0.07605 -9.7e-4,0.113977 0.002,0.04073 0.01,0.08101 0.0147,0.12151 0.0369,0.14407 0.0304,0.293412 0.0449,0.439794 0.005,0.05173 0.0159,0.102793 0.0216,0.154467 0.002,0.02475 0.001,0.04971 0.005,0.07424 0.01,0.0643 0.0316,0.133997 0.0466,0.19693 0.0215,0.09023 0.0391,0.181589 0.0591,0.272173 0.008,0.03455 0.0183,0.06857 0.0229,0.103648 0.005,0.03455 0.003,0.06965 0.005,0.104444 0.004,0.06965 0.0127,0.145235 0.0118,0.215138 -8.7e-4,0.06904 -0.009,0.12154 -0.018,0.189203 -0.008,0.0659 -0.0236,0.130774 -0.0329,0.196532 -0.19106,1.353437 3.3785,0.34157 3.71457,0.362469 0.01,-0.187238 -0.0408,-0.372053 -0.0398,-0.558783 0.001,-0.237305 0.0391,-0.421983 0.0814,-0.656547 0.0802,-0.444991 0.0521,-0.305188 0.17023,-0.73637 0.062,-0.361697 0.12212,-0.722535 0.21666,-1.077454 0.0273,-0.102526 0.0624,-0.202933 0.0881,-0.305862 0.0242,-0.0967 0.0393,-0.195462 0.0616,-0.292613 0.0207,-0.090273 0.0449,-0.1797057 0.0674,-0.2695584 0.10083,-0.3154421 0.12775,-0.6544356 0.27018,-0.9570758 0.0157,-0.03345 0.0367,-0.064169 0.0551,-0.096253 1.09114,0.6927961 0.16095,0.079554 -3.48812,0.1685257 -0.0353,8.619e-4 0.0681,-0.039491 0.10198,-0.029251 0.0535,0.0162 0.0988,0.057466 0.13424,0.1007178 0.11776,0.143573 0.13577,0.2753 0.18641,0.448963 0.0875,0.2841596 0.12502,0.3534409 0.14996,0.6580727 0.0161,0.196547 -0.004,0.445306 -0.0192,0.642449 -0.0538,0.67884 -2.5e-4,-0.109205 -0.0413,0.521013 -0.0496,0.337702 -0.0204,0.07983 -0.0355,0.406684 -0.003,0.05799 -0.0108,0.11568 -0.0124,0.173706 -0.004,0.15354 0.0114,0.307588 0.0242,0.460339 0.0365,0.218105 0.0732,0.437093 0.13014,0.650963 0.0388,0.08488 0.0395,0.214246 0.10085,0.287708 0.0128,0.01537 0.0318,0.02432 0.0478,0.03648 0.0669,0.05396 0.13096,0.127904 0.15585,0.212491 0.01,0.0331 -0.0143,0.100243 0.0201,0.101523 1.23481,0.04587 2.4712,0.02462 3.70679,0.03692 4.2e-4,-0.06779 0.006,-0.135727 0.001,-0.203363 -0.004,-0.0625 -0.0182,-0.123936 -0.0274,-0.185901 -0.0117,-0.07956 -0.0223,-0.159309 -0.0353,-0.238673 -0.046,-0.280675 -0.0818,-0.386111 -0.0855,-0.679682 -0.001,-0.118838 0.0138,-0.237294 0.0207,-0.355941 0.004,-0.142563 0.0132,-0.575341 0.0253,-0.718049 0.009,-0.109358 0.0299,-0.217475 0.0422,-0.326528 0.0321,-0.283828 0.0553,-0.569259 0.0809,-0.853755 0.0333,-0.2264092 0.0367,-0.4549697 0.071,-0.6812506 0.0102,-0.067238 0.0257,-0.133578 0.0365,-0.2007222 0.0108,-0.066804 0.0155,-0.1345558 0.0281,-0.2010367 0.0122,-0.064193 0.0307,-0.1270069 0.0461,-0.1905103 0.0168,-0.059359 0.0345,-0.1184878 0.0504,-0.1780785 0.0318,-0.1187394 0.049,-0.2038313 0.0827,-0.3208619 0.0361,-0.1253683 0.0839,-0.2464059 0.12512,-0.3700675 0.0239,-0.096138 0.0412,-0.1936209 0.0539,-0.2918173 0.003,-0.026184 0.0112,-0.052398 0.009,-0.078696 -0.005,-0.054668 -0.0378,-0.1473622 -0.0552,-0.2008975 -0.0431,-0.1284356 -0.10775,-0.2478716 -0.15762,-0.3735887 -0.0191,-0.048237 -0.0333,-0.098291 -0.0504,-0.147284 -0.0261,-0.084795 -0.0557,-0.1684721 -0.0873,-0.2513519 0,0 -3.66458,0.1806729 -3.66458,0.1806729 v 0 c 0.0497,0.067123 0.096,0.1372237 0.13712,0.2098651 0.0724,0.1575017 0.1502,0.3120261 0.21849,0.4712662 0.0234,0.1392449 0.0542,0.2764858 0.0327,0.4187041 -5.7e-4,0.036196 -0.003,0.1937795 -0.005,0.2228998 -0.0133,0.2169552 -0.0579,0.4312941 -0.0669,0.6488149 -0.008,0.067231 -0.0155,0.1346056 -0.0248,0.2016927 -0.01,0.071583 -0.0263,0.1423209 -0.0333,0.2142653 -0.007,0.070296 -0.005,0.1411379 -0.008,0.2117216 -0.008,0.2337652 -0.0234,0.4690005 0.0128,0.7014385 0.0171,0.282764 0.0302,0.565582 0.0456,0.848408 0.006,0.108496 0.0194,0.216648 0.021,0.325293 0.003,0.186691 -0.0213,0.529759 -0.0325,0.715349 -0.004,0.117024 0.002,0.234849 -0.0119,0.351073 -0.0303,0.247488 -0.0884,0.421723 -0.18749,0.646017 -0.0188,0.04254 -0.12625,0.282859 -0.2111,0.310113 -0.0288,0.0092 -0.0499,-0.03397 -0.0749,-0.05096 1.21218,0.02304 2.42467,0.03338 3.63654,0.06913 0.022,6.5e-4 -0.0337,0.04181 -0.0551,0.03653 -0.0228,-0.0056 -0.0275,-0.03828 -0.0377,-0.05944 -0.0122,-0.02558 -0.0181,-0.05381 -0.0291,-0.07997 -0.0969,-0.231518 0.0237,0.0827 -0.0616,-0.143842 -0.007,-0.01691 -0.0107,-0.03643 -0.0224,-0.05074 -0.006,-0.0074 -0.0191,-0.0041 -0.0269,-0.0095 -0.012,-0.0083 -0.0196,-0.02173 -0.031,-0.03073 -0.0111,-0.0087 -0.0257,-0.01242 -0.036,-0.02198 -0.0367,-0.03404 -0.0476,-0.0681 -0.07,-0.11299 -0.11309,-0.170685 -0.20306,-0.355889 -0.2532,-0.555109 -0.0453,-0.194741 -0.092,-0.40034 -0.12304,-0.597472 -0.01,-0.06378 -0.0135,-0.128524 -0.0247,-0.192111 -0.0124,-0.07043 -0.0307,-0.139702 -0.046,-0.209552 -0.0547,-0.388939 -0.1403,-0.778213 -0.15414,-1.171861 -0.004,-0.1196522 3.5e-4,-0.2395474 0.006,-0.3591221 0.006,-0.1115301 0.019,-0.222532 0.0285,-0.333798 -0.006,-0.090153 -0.0149,-0.1801567 -0.0175,-0.2704602 -0.002,-0.084559 0.001,-0.1691839 0.002,-0.2537741 7.8e-4,-0.075478 0.009,-0.1512007 0.003,-0.2264308 -0.005,-0.063379 0.027,-0.185419 -0.0366,-0.1872371 -3.74177,-0.1070232 -3.69484,-1.1435203 -3.69328,0.2249141 0.0114,0.2090044 0.0231,0.4183951 0.0149,0.6277896 -0.003,0.073587 -0.0116,0.1468794 -0.014,0.2204848 -0.002,0.078171 -3.1e-4,0.1564202 -4.7e-4,0.2346303 -0.059,0.9592615 0.0349,-0.4768019 -0.0526,0.5598315 -0.009,0.10121 -0.006,0.203119 -0.0142,0.304377 -0.0282,0.358796 -0.0909,0.713649 -0.17735,1.062825 -0.0215,0.117355 -0.0346,0.236581 -0.0646,0.352066 -0.0802,0.309029 -0.24876,0.73117 -0.4448,0.986596 -0.0552,0.07193 -0.10545,0.164751 -0.19157,0.193122 -0.0533,0.01756 -0.0982,-0.05432 -0.14731,-0.08149 1.22151,0.07777 2.44308,0.154487 3.66452,0.233314 0.006,4.12e-4 -0.014,0.0058 -0.0191,0.0019 -0.009,-0.0065 -0.0124,-0.01789 -0.0154,-0.02815 -0.019,-0.06495 -0.0164,-0.136509 -0.035,-0.201638 -0.0105,-0.06858 -0.0207,-0.125894 -0.0254,-0.195728 -0.005,-0.07645 -0.002,-0.153313 -0.007,-0.229773 -0.002,-0.03782 -0.01,-0.07527 -0.0115,-0.113136 -0.002,-0.03996 4.3e-4,-0.08001 6.4e-4,-0.120018 -0.0148,-0.181777 -0.0621,-0.35781 -0.0762,-0.539831 -0.003,-0.02053 -0.0243,-0.161395 -0.0296,-0.18048 -0.008,-0.02894 -0.0221,-0.05583 -0.0324,-0.08402 -0.037,-0.10135 -0.0712,-0.202912 -0.0695,-0.312512 -0.002,-0.03636 -0.002,-0.07281 -0.005,-0.109092 -0.003,-0.03614 -0.0108,-0.07184 -0.0125,-0.10806 -0.004,-0.07975 0.004,-0.144463 0.0163,-0.223104 0.005,-0.0327 0.007,-0.06652 0.0179,-0.09761 0.0105,-0.02896 0.0311,-0.05321 0.0467,-0.07982 0,0 -3.71193,0 -3.71193,0 z" />
    <path
       style="fill:#f9ff00;fill-opacity:1"
       id="path74760"
       d="m 167.45032,8.1728719 c 0.0262,0.00255 0.0545,-0.00301 0.0785,0.00764 0.1418,0.062843 0.1949,0.1322209 0.28171,0.2634359 0.0692,0.1046578 0.19277,0.3525283 0.23278,0.4637805 0.0327,0.090853 0.0511,0.1862246 0.0766,0.2793369 0.0801,0.3699663 0.0659,0.7440482 0.0265,1.1172508 -0.008,0.07979 -0.0143,0.159969 -0.0269,0.239196 -0.0113,0.07039 -0.0299,0.139408 -0.0448,0.209112 -0.0669,0.21704 -0.1363,0.432894 -0.21382,0.646297 -0.0183,0.05028 -0.0324,0.102131 -0.0533,0.151378 -0.0217,0.05108 -0.0494,0.09935 -0.0742,0.149031 -0.17798,0.258054 -0.41851,0.458496 -0.7067,0.583092 -0.07,0.03026 -0.14273,0.05373 -0.21409,0.0806 -0.29774,0.09744 -0.60832,0.158007 -0.92116,0.177965 -0.0702,0.0045 -0.28113,0.0056 -0.21083,0.0053 1.05166,-0.0042 2.1033,-0.01132 3.15495,-0.01698 -0.14734,-0.01 -0.29925,-0.01265 -0.4445,-0.04273 -0.17005,-0.03522 -0.32797,-0.113871 -0.48267,-0.188815 -0.19524,-0.125463 -0.39728,-0.267804 -0.52693,-0.466204 -0.0777,-0.118916 -0.23302,-0.514336 -0.26236,-0.633638 -0.0315,-0.127885 -0.0368,-0.260807 -0.0552,-0.391211 0.002,-0.345721 -0.0106,-0.418915 0.0401,-0.758262 0.0172,-0.1151857 0.0441,-0.228728 0.0682,-0.3426569 0.0232,-0.1091982 0.0438,-0.2191283 0.0737,-0.3266709 0.0665,-0.2389935 0.11274,-0.326791 0.20825,-0.5477152 0.084,-0.1885676 0.18173,-0.3699024 0.22614,-0.5731318 0.0387,-0.1769115 0.0413,-0.3553426 0.0416,-0.5353036 -0.006,-0.354579 -0.10449,-0.6129436 -0.28563,-0.9114497 -0.0288,-0.03641 -0.055,-0.074997 -0.0864,-0.1092305 -0.873,-0.9530414 -3.63387,-0.1303272 -3.83591,-0.1168534 -0.0697,0.00465 -0.061,0.1263897 -0.0806,0.1934394 -0.0233,0.079721 -0.0316,0.1630761 -0.0474,0.2446142 -0.0221,0.534551 -0.003,0.1499038 -0.0409,0.7312498 -0.009,0.1454868 -0.0105,0.2916849 -0.027,0.4365481 -0.0159,0.1400962 -0.0511,0.2774323 -0.0699,0.4171657 -0.0188,0.1396566 -0.064,0.6580326 -0.0772,0.8049397 -0.0439,0.3051201 -0.0647,0.6122131 -0.0746,0.9200181 -0.005,0.150286 -0.0142,0.301016 0.008,0.450774 0.0115,0.07672 0.0348,0.151197 0.0522,0.226795 0.013,0.20816 0.0529,0.412557 0.10498,0.614086 0.0187,0.07253 0.0426,0.143703 0.06,0.216555 0.031,0.129407 0.0521,0.260967 0.0786,0.391371 0.0178,0.06184 0.0355,0.123674 0.0533,0.185505 0.0157,0.05451 0.0291,0.109723 0.0471,0.163527 0.061,0.182777 0.15033,0.355442 0.25244,0.51813 0.10412,0.14767 0.24585,0.3492 0.4518,0.351993 1.20159,0.0163 2.40338,-0.0089 3.60507,-0.01337 0.25442,-0.08477 0.0654,-0.0122 0.33415,-0.146579 0.0684,-0.03418 0.13951,-0.06266 0.20723,-0.09807 0.12686,-0.06634 0.29831,-0.171125 0.41291,-0.255935 0.0672,-0.04974 0.12949,-0.105825 0.19423,-0.158737 0.0603,-0.05856 0.12725,-0.110898 0.18077,-0.175675 0.0763,-0.09232 0.23755,-0.369113 0.29459,-0.469964 0.0831,-0.146965 0.18483,-0.334099 0.24806,-0.491891 0.0318,-0.07928 0.0544,-0.161912 0.0816,-0.242868 0.0107,-0.08498 0.0344,-0.16931 0.0322,-0.254938 -0.006,-0.258447 -0.16159,-0.699818 -0.35339,-0.882408 -0.0575,-0.05475 -0.12971,-0.09161 -0.19457,-0.137412 -1.31975,-0.3379133 -0.86024,-0.2438873 -3.74881,0.08888 -0.10714,0.01234 -0.11149,0.18464 -0.16765,0.276705 -0.11922,0.195438 -0.26093,0.415689 -0.36482,0.619641 -0.0549,0.107862 -0.10034,0.220324 -0.15051,0.330486 -0.11008,0.278491 -0.2133,0.565151 -0.26172,0.862139 -0.0115,0.07036 -0.0249,0.141819 -0.0199,0.212928 0.0129,0.184119 0.0575,0.216724 0.14987,0.362423 0.0682,0.04261 0.13099,0.09544 0.20461,0.127817 0.0923,0.04058 0.35522,0.101141 0.46433,0.102057 1.17423,0.0099 2.34868,0.01805 3.5228,-3.72e-4 0.0733,-0.0012 0.1449,-0.02902 0.21215,-0.05825 0.072,-0.03127 0.13437,-0.08104 0.20155,-0.121557 0.0533,-0.07604 0.11868,-0.144915 0.15995,-0.22811 0.053,-0.106943 0.0769,-0.226113 0.12048,-0.337253 0.0468,-0.119459 0.11065,-0.232315 0.15062,-0.354245 0.0442,-0.13488 0.0673,-0.275789 0.10106,-0.413652 0.13171,-0.537599 0.0616,-0.285216 0.21781,-0.788995 0.0324,-0.10746 0.0648,-0.214921 0.0971,-0.322382 0,0 -3.13959,-0.04211 -3.13959,-0.04211 v 0 c 0.004,0.10216 0.008,0.204319 0.0123,0.306479 -0.009,0.119071 -0.006,0.239528 -0.0259,0.357215 -0.0534,0.31312 -0.12705,0.480824 -0.27995,0.758288 -0.0596,0.108102 -0.11683,0.219794 -0.19748,0.313226 -0.19901,0.230532 -0.28392,0.24249 -0.53356,0.358838 -0.067,0.01502 -0.133,0.03559 -0.201,0.04507 -0.0689,0.0096 -0.27805,0.01144 -0.20845,0.012 1.03319,0.0083 2.06644,0.0047 3.09964,0.0112 0.0697,4.41e-4 -0.13939,0.0066 -0.20914,0.0071 -0.0574,4.17e-4 -0.11493,-0.0012 -0.1723,-0.0043 -0.0428,-0.0023 -0.0853,-0.0079 -0.12801,-0.01192 -0.0755,-0.02881 -0.16447,-0.05 -0.21569,-0.121814 -0.0331,-0.04639 -0.0514,-0.102415 -0.0672,-0.157158 -0.072,-0.24957 -0.0408,-0.499558 0.0339,-0.744351 0.043,-0.09757 0.0777,-0.199205 0.12898,-0.292701 0.10306,-0.188026 0.25664,-0.398681 0.43466,-0.523971 0.0902,-0.06346 0.40869,-0.135686 0.29863,-0.142205 -2.68678,-0.159144 -4.06997,0.288401 -2.87643,-0.07986 0.0579,9.39e-4 0.11846,-0.01445 0.17374,0.0028 0.0575,0.01795 0.10488,0.06033 0.15128,0.0987 0.14885,0.123075 0.23218,0.290645 0.24883,0.48289 0.005,0.06231 -0.004,0.125035 -0.005,0.187552 -0.0593,0.235465 -0.11346,0.431071 -0.24896,0.638826 -0.13929,0.213578 -0.33065,0.37669 -0.53146,0.52966 -0.0642,0.04237 -0.12656,0.08781 -0.19273,0.127103 -0.18688,0.110959 -0.43488,0.222072 -0.64678,0.272131 -0.18436,0.04355 -0.27219,0.03947 -0.45443,0.04723 1.09786,0.0021 2.19587,-0.01211 3.29357,0.0064 0.0302,5.09e-4 -0.0479,0.03962 -0.0769,0.04786 -0.0668,0.01895 -0.17434,-0.04068 -0.22727,-0.07173 -0.0302,-0.01772 -0.058,-0.03926 -0.087,-0.05889 -0.0297,-0.02256 -0.0611,-0.0429 -0.0889,-0.06769 -0.19028,-0.169561 -0.31086,-0.401612 -0.40723,-0.633353 -0.0227,-0.0638 -0.11337,-0.315408 -0.12968,-0.377493 -0.0277,-0.105641 -0.0546,-0.305085 -0.0775,-0.412177 -0.014,-0.0653 -0.0319,-0.12968 -0.0488,-0.194295 -0.0178,-0.06827 -0.0368,-0.136221 -0.0551,-0.204331 -0.009,-0.07297 -0.0136,-0.146565 -0.0267,-0.21891 -0.0118,-0.0653 -0.0946,-0.375976 -0.10827,-0.431512 -0.0715,-0.290087 -0.13422,-0.5826985 -0.169,-0.8797816 -0.0141,-0.4485673 -0.0221,-0.316176 0.0145,-0.7758459 0.0108,-0.1356556 0.0125,-0.272785 0.0378,-0.4064968 0.0405,-0.2142363 0.16181,-0.5765404 0.27345,-0.7709717 0.0557,-0.096965 0.13505,-0.1782402 0.20258,-0.2673604 0.0615,-0.048239 0.11483,-0.1092264 0.18446,-0.1447166 0.043,-0.021935 0.19149,-0.021748 0.14319,-0.022288 -1.13713,-0.012697 -2.27453,0.00471 -3.41157,-0.014206 -0.0376,-6.253e-4 0.0676,-0.038524 0.10511,-0.040812 0.0519,-0.00317 0.15679,0.054845 0.19914,0.075352 0.0706,0.060313 0.11914,0.094637 0.17428,0.1711824 0.10687,0.1483703 0.14462,0.3272587 0.17449,0.5037369 0.002,0.049231 0.008,0.098409 0.007,0.1476926 -0.001,0.1152181 -0.0179,0.1990506 -0.0316,0.3132939 -0.0251,0.2099698 -0.0142,0.121238 -0.0263,0.3431941 -0.004,0.072732 -0.009,0.1454143 -0.0131,0.2181214 -0.016,0.2224862 -0.022,0.34311 -0.0507,0.5701552 -0.0147,0.1162464 -0.0405,0.2310878 -0.0512,0.3477786 -0.0109,0.1199702 -0.0105,0.2407202 -0.0135,0.3611529 -0.01,0.415382 -0.005,0.378185 0.009,0.79973 0.004,0.139113 0.01,0.278186 0.012,0.417338 0.002,0.134718 -0.012,0.270104 0.001,0.404202 0.0108,0.110943 0.046,0.218139 0.0703,0.326942 0.0226,0.101308 0.0316,0.207012 0.0702,0.303371 0.0555,0.13871 0.17625,0.245132 0.27643,0.348827 0.10594,0.09381 0.16174,0.152746 0.28304,0.224385 0.0493,0.02909 0.10236,0.05111 0.15414,0.07542 0.0503,0.02359 0.0988,0.05192 0.1519,0.06826 0.0769,0.02367 0.28707,0.04429 0.36073,0.05292 0.93629,-0.0023 2.86981,0.248514 4.14456,-0.140883 0.1079,-0.03296 0.34817,-0.126893 0.44679,-0.164514 0.16861,-0.07717 0.32027,-0.138147 0.47478,-0.243269 0.06,-0.04082 0.11209,-0.09224 0.16685,-0.139867 0.17372,-0.151121 0.31468,-0.284343 0.41009,-0.498758 0.0765,-0.13625 0.1301,-0.216198 0.1805,-0.362851 0.018,-0.05243 0.0265,-0.107682 0.0404,-0.161341 0.0156,-0.06017 0.0367,-0.119076 0.0483,-0.180144 0.0296,-0.155083 0.0202,-0.220016 0.0179,-0.378938 -0.003,-0.124994 -0.008,-0.355247 -0.016,-0.476811 -0.0123,-0.186861 -0.04,-0.3725598 -0.044,-0.5600706 -0.006,-0.1038657 -0.009,-0.207978 -0.0173,-0.3117157 -0.008,-0.1040286 -0.0215,-0.2076034 -0.0322,-0.311405 -0.0143,-0.099988 -0.0302,-0.1997632 -0.0429,-0.2999639 -0.012,-0.094801 -0.0171,-0.1904716 -0.0313,-0.2849654 -0.0211,-0.1398887 -0.0682,-0.2875052 -0.0745,-0.4306145 -0.003,-0.056726 0.01,-0.1131941 0.0115,-0.1699557 8.5e-4,-0.032467 -0.003,-0.064887 -0.005,-0.09733 0,0 -3.71047,0.3333716 -3.71047,0.3333716 z" />
    <path
       style="fill:#f9ff00;fill-opacity:1"
       id="path75500"
       d="m 240.96768,6.608725 c 0.0202,0.031382 0.14211,0.22052 0.14651,0.2306207 0.0255,0.058526 0.0373,0.1221255 0.0531,0.1839845 0.0189,0.074225 0.0388,0.1484445 0.0507,0.2240961 0.0229,0.1452257 0.0263,0.3357518 0.0322,0.4819497 0.004,0.098345 0.0191,0.4025318 0.0165,0.5004094 -0.002,0.077327 -0.0134,0.1541371 -0.0186,0.2313175 -0.005,0.072763 -0.005,0.1458092 -0.0116,0.218471 -0.047,0.5494605 -0.005,-0.1477428 -0.0336,0.3785184 -0.005,0.05654 -0.0117,0.1129433 -0.0146,0.1696187 -0.003,0.05567 -0.001,0.1114769 -0.002,0.1672055 -0.005,0.2176893 -0.0111,0.434306 2.7e-4,0.6518105 -10e-4,0.05493 -0.005,0.109875 -0.003,0.164799 0.008,0.317101 0.0198,0.03675 0.014,0.355866 -0.006,0.340633 -0.006,0.0068 -0.0242,0.325647 -0.003,0.05106 -9.4e-4,0.102286 -0.001,0.153429 -0.0299,0.239462 -0.0239,0.481345 -0.057,0.720434 -0.0152,0.164424 -0.0175,0.328908 -0.0182,0.493772 0.007,0.05436 -4.5e-4,0.109175 0.003,0.163605 0.004,0.06608 0.0174,0.131358 0.0226,0.197369 0.008,0.105087 0.006,0.113471 0.004,0.21813 -0.002,0.0342 -0.006,0.06836 -0.006,0.102598 8.1e-4,0.03772 0.009,0.07501 0.0102,0.112721 0.003,0.126486 -0.0151,0.25435 -0.0349,0.378863 -0.0158,0.08357 -0.0163,0.169679 -0.0178,0.254643 0,0 3.65761,0 3.65761,0 v 0 c -0.002,-0.08496 -0.002,-0.171072 -0.0178,-0.254643 -0.0197,-0.124513 -0.0383,-0.252377 -0.0349,-0.378863 0.001,-0.03771 0.009,-0.075 0.0102,-0.112721 7.4e-4,-0.03424 -0.004,-0.0684 -0.006,-0.102598 -0.002,-0.104659 -0.005,-0.113043 0.004,-0.21813 0.005,-0.06601 0.0183,-0.131289 0.0226,-0.19737 0.004,-0.05443 -0.004,-0.109249 0.003,-0.163605 -7.2e-4,-0.164864 -0.003,-0.329349 -0.0182,-0.493773 -0.0332,-0.239079 -0.0271,-0.480951 -0.057,-0.720406 -4.6e-4,-0.05114 0.002,-0.102357 -0.001,-0.153415 -0.0181,-0.317851 -0.0181,0.01389 -0.0241,-0.325616 -0.006,-0.317716 0.006,-0.0401 0.0142,-0.355803 0.002,-0.05491 -0.002,-0.10985 -0.003,-0.164776 0.0116,-0.2175588 0.005,-0.4342736 8.2e-4,-0.6520316 -0.001,-0.055825 3.6e-4,-0.11173 -0.003,-0.1674928 -0.003,-0.056821 -0.01,-0.1133585 -0.0149,-0.1700378 -0.0273,-0.4687227 0.0107,0.1086391 -0.036,-0.3798603 -0.007,-0.072999 -0.008,-0.1464435 -0.0144,-0.2195261 -0.006,-0.07761 -0.0192,-0.1547088 -0.023,-0.2324898 -0.004,-0.084403 -9.9e-4,-0.1690099 -9.7e-4,-0.2535158 3e-5,-0.08381 7.6e-4,-0.1676184 0.001,-0.2514276 -0.002,-0.1308628 -0.008,-0.3572003 0.002,-0.4883851 0.006,-0.077155 0.019,-0.1535745 0.0298,-0.2301833 0.0196,-0.1387092 0.031,-0.2879229 0.13611,-0.3932088 0,0 -3.73727,0 -3.73727,0 z" />
    <path
       style="fill:#f9ff00;fill-opacity:1"
       id="path75502"
       d="m 247.31615,13.873678 c -0.14083,-0.251221 -0.11948,-0.548033 -0.13285,-0.826137 -0.006,-0.06227 -0.0147,-0.124328 -0.0174,-0.186808 -0.003,-0.06184 0.003,-0.12381 0.001,-0.185687 -0.005,-0.197045 -0.0195,-0.197463 -0.0137,-0.395732 0.0138,-0.470646 0.0208,0.10365 0.01,-0.374857 0.001,-0.247789 -0.008,-0.497019 0.024,-0.743538 0.0447,-0.349889 0.0179,0.01609 0.0378,-0.33887 -0.002,-0.06208 -0.007,-0.124146 -0.005,-0.186229 0.001,-0.05963 0.012,-0.118812 0.0135,-0.178443 0.0115,-0.452985 -0.0189,0.0885 -0.0167,-0.391136 3e-4,-0.06367 0.01,-0.1269779 0.0144,-0.1904667 -0.001,-0.065087 -0.002,-0.1301742 -0.003,-0.1952613 -0.008,-0.1922228 0.0118,-0.3849823 0.007,-0.5771188 -0.002,-0.067724 -0.0114,-0.135074 -0.0136,-0.2027867 -0.004,-0.1356124 0.003,-0.26094 0.008,-0.3962148 0.002,-0.062683 0.005,-0.1253431 0.006,-0.1880504 0.001,-0.062531 -0.003,-0.1251672 3.4e-4,-0.1876198 0.003,-0.056646 0.0131,-0.1126968 0.0186,-0.1691616 0.0136,-0.1412736 0.0281,-0.2822648 0.0421,-0.4235195 0.009,-0.1958698 0.0483,-0.389992 0.0404,-0.5862686 0.005,-0.1018835 0.001,-0.2019736 0.0216,-0.3023099 0,0 -3.63859,-0.021843 -3.63859,-0.021843 v 0 c 0.005,0.1081747 0.0101,0.2159528 0.0133,0.3241547 -0.008,0.1963032 0.0313,0.390449 0.0404,0.5863398 0.014,0.141273 0.0286,0.2822891 0.0423,0.423577 0.005,0.056468 0.0156,0.1125191 0.0187,0.1691698 0.003,0.062454 -6.3e-4,0.1250974 5e-4,0.1876311 0.001,0.062702 0.004,0.1253553 0.006,0.1880329 0.005,0.1350949 0.013,0.2605955 0.009,0.3960303 -0.002,0.067628 -0.0118,0.1348894 -0.0137,0.2025265 -0.005,0.1914214 0.0136,0.383518 0.004,0.5750168 -0.002,0.064568 -0.004,0.129135 -0.006,0.1937025 0.003,0.062945 0.0114,0.1258212 0.01,0.1888357 -0.003,0.128432 -0.0282,0.255607 -0.0331,0.383985 -0.002,0.05839 0.004,0.116973 2.8e-4,0.175293 -0.004,0.06066 -0.0148,0.120646 -0.0222,0.180969 -0.0232,0.344171 -0.005,-0.0078 -0.007,0.338791 -0.001,0.246014 -0.0113,0.134443 -0.0171,0.386208 -0.001,0.06282 0.001,0.125673 0.002,0.188513 1.8e-4,0.06335 -3.1e-4,0.126707 -4.6e-4,0.190061 -0.0111,0.478507 -0.004,-0.09579 0.01,0.374857 0.006,0.198269 -0.009,0.198687 -0.0137,0.395732 -0.002,0.06188 0.004,0.123849 0.001,0.185687 -0.003,0.06248 -0.0116,0.124539 -0.0174,0.186808 -0.0134,0.278104 0.008,0.574916 -0.13284,0.826137 0,0 3.70347,0 3.70347,0 z" />
    <path
       style="fill:#f9ff00;fill-opacity:1"
       id="path75504"
       d="m 245.57709,6.6671662 c 0.0382,0.00853 0.0815,0.00459 0.11445,0.025598 0.0454,0.02892 0.0762,0.07623 0.11049,0.1177295 0.0989,0.1197628 0.17589,0.2320823 0.23433,0.3782456 0.0298,0.074633 0.0448,0.1543755 0.067,0.2316273 0.025,0.086913 0.0497,0.1739104 0.0745,0.2608656 0.0809,0.4045324 0.12985,0.8214155 0.10897,1.2348148 -0.0113,0.2236929 -0.0493,0.4249986 -0.0843,0.6454868 -0.0164,0.1081148 -0.0268,0.217291 -0.0491,0.3243444 -0.0211,0.1012249 -0.054,0.1995988 -0.0807,0.2994938 -0.0918,0.343849 -0.1803,0.687933 -0.28242,1.028902 -0.0185,0.07182 -0.041,0.142727 -0.0555,0.215463 -0.0149,0.0749 -0.0175,0.151928 -0.0326,0.226781 -0.0148,0.07315 -0.0393,0.144024 -0.0571,0.216492 -0.0286,0.116008 -0.0659,0.304356 -0.10012,0.419491 -0.0185,0.06239 -0.043,0.122834 -0.0645,0.184251 -0.0153,0.05895 -0.0286,0.118453 -0.0459,0.176849 -0.0733,0.247331 -0.0353,0.06232 -0.0891,0.302969 -0.0245,0.09385 -0.0333,0.190799 -0.0542,0.285335 -0.009,0.04253 -0.0223,0.0842 -0.0335,0.126299 -0.0375,0.145468 -0.0165,0.0772 -0.061,0.205326 0,0 3.58309,0.05869 3.58309,0.05869 v 0 c 1.7e-4,-0.137274 -3.1e-4,-0.06725 0.002,-0.210082 0.002,-0.04141 0.001,-0.08297 0.005,-0.124226 0.0134,-0.14079 0.0438,-0.280222 0.0569,-0.421117 0.005,-0.05087 0.003,-0.102257 0.008,-0.153051 0.006,-0.05847 0.0181,-0.116228 0.0272,-0.174342 0.005,-0.06147 0.007,-0.123316 0.0155,-0.184397 0.0145,-0.103217 0.066,-0.323229 0.0838,-0.424335 0.0127,-0.07189 0.017,-0.145194 0.032,-0.216623 0.10846,-0.515591 0.0268,0.04345 0.0896,-0.44513 0.0187,-0.19375 0.0252,-0.282377 0.0526,-0.47848 0.0127,-0.09084 0.0296,-0.181059 0.0422,-0.271905 0.0274,-0.196868 0.0394,-0.39568 0.0668,-0.5925357 0.0156,-0.1115348 0.0386,-0.2219088 0.0578,-0.3328632 0.0494,-0.4470627 0.0277,-0.2202438 0.0643,-0.6744726 0.009,-0.1159299 0.0222,-0.2316312 0.0281,-0.347788 0.0161,-0.317395 0.005,-0.6362107 -0.0125,-0.9531991 -0.0323,-0.5370384 0.0102,-0.042099 -0.0665,-0.5355866 -0.023,-0.1477618 -0.0318,-0.2974321 -0.0524,-0.4455395 -0.007,-0.048596 -0.021,-0.096311 -0.0235,-0.1453127 -0.003,-0.050947 0.006,-0.1018754 0.008,-0.152813 0,0 -3.68787,0.3187472 -3.68787,0.3187472 z" />
    <path
       style="fill:#f9ff00;fill-opacity:1"
       id="path76247"
       d="m 318.76756,6.6211621 c 0.01,0.00234 0.0213,0.00109 0.0294,0.00702 0.0886,0.06448 0.11267,0.3077238 0.12241,0.4048808 0.0273,0.2795011 0.0445,0.5604645 0.0402,0.8414822 -0.0226,0.3061882 0.005,0.6127192 0.0242,0.9183466 0.0107,0.1074077 -0.0199,0.2122448 -0.0224,0.3187155 -0.003,0.1084125 0.0118,0.2166149 0.0137,0.3250421 0.002,0.1104591 -0.001,0.2170823 -0.003,0.327478 -10e-4,0.052678 -0.003,0.1053562 -0.004,0.1580332 -0.001,0.051271 -6.2e-4,0.1026495 -0.004,0.1538105 -0.006,0.09092 -0.0278,0.175434 -0.0244,0.267145 0.002,0.04966 0.0129,0.09856 0.0185,0.147949 0.006,0.05479 0.0111,0.109698 0.0167,0.164548 0.006,0.06084 0.0158,0.121415 0.0181,0.182506 0.002,0.05932 -0.003,0.118684 -0.005,0.178037 -0.005,0.230205 -0.01,0.46079 -0.006,0.69098 5.5e-4,0.05787 5.3e-4,0.115739 0.002,0.173596 0.002,0.121365 0.0103,0.242597 0.0117,0.363977 0.002,0.176345 -0.008,0.352897 -0.016,0.528985 -10e-4,0.265645 -0.0311,0.529809 -0.038,0.795178 -0.002,0.141253 0.0135,0.31486 0.13939,0.405887 0.0294,0.02123 0.0647,0.03261 0.0971,0.04891 1.30112,0.192 0.2572,0.04316 3.75116,0.01047 0.033,-3.09e-4 0.064,-0.01725 0.0944,-0.03017 0.035,-0.01489 0.067,-0.03614 0.10119,-0.05296 0.0358,-0.01765 0.0725,-0.03361 0.10876,-0.05042 0.0362,-0.0179 0.0724,-0.0358 0.10861,-0.0537 0.10498,-0.04731 0.19054,-0.122679 0.28124,-0.191002 0.0404,-0.03044 0.14987,-0.100837 0.18706,-0.135566 0.0308,-0.02879 0.0558,-0.06331 0.0837,-0.09497 0.0346,-0.07782 0.10425,-0.133372 0.14406,-0.207594 0.048,-0.08945 0.0724,-0.189739 0.11278,-0.282864 0.0423,-0.09765 0.0895,-0.193141 0.13249,-0.290531 0.0618,-0.121174 0.13004,-0.244963 0.16453,-0.377817 0.0388,-0.149647 0.0149,-0.141822 0.0421,-0.300383 0.009,-0.05175 0.0245,-0.102126 0.0367,-0.153189 0.011,-0.04919 0.0238,-0.09802 0.0331,-0.147571 0.0448,-0.240199 -0.003,-0.06847 0.0595,-0.29757 0.0257,-0.0943 0.0555,-0.168993 0.0673,-0.266615 0.006,-0.04898 0.004,-0.0986 0.006,-0.1479 -0.003,-0.05662 -0.0115,-0.113146 -0.0104,-0.169864 0.002,-0.111191 0.0248,-0.22128 0.0282,-0.33244 0.002,-0.05905 -0.003,-0.118189 -0.001,-0.177223 0.004,-0.110119 0.0175,-0.219696 0.0253,-0.3296217 0.0252,-0.2021666 3.1e-4,-0.4058406 0.019,-0.6080135 10e-4,-0.015388 0.0301,-0.220799 0.0333,-0.2440788 0.0102,-0.1954513 0.0182,-0.3902433 0.0244,-0.5858477 0.0105,-0.1171008 0.006,-0.2332301 -0.007,-0.3498826 -0.004,-0.035899 -0.0122,-0.071387 -0.0142,-0.1074646 -0.002,-0.038496 0.001,-0.077101 0.002,-0.1156515 0.0127,-0.2194852 0.0411,-0.4374379 0.0929,-0.6511391 0.0268,-0.062882 0.0364,-0.1310274 0.0581,-0.1954472 0.0246,-0.07302 0.0368,-0.080596 0.0642,-0.1509185 0.043,-0.1102931 -4.3e-4,-0.032489 0.0556,-0.1212273 0.0249,-0.07569 0.0823,-0.1305859 0.13623,-0.1865722 0,0 -3.6279,-0.2380582 -3.6279,-0.2380582 v 0 c -0.0597,0.093399 -0.11535,0.1875079 -0.14858,0.2941811 -0.0104,0.051246 -0.0257,0.1014245 -0.0358,0.1527463 -0.0239,0.1222685 -0.0335,0.2485771 -0.0496,0.3719234 -0.0776,0.4362377 0.0434,-0.2327086 -0.0487,0.2367385 -0.0303,0.1544951 -0.0319,0.3136354 -0.0381,0.4704086 -0.0159,0.1970013 -0.0659,0.391442 -0.0389,0.5906335 0.006,0.1955134 0.015,0.39018 0.0255,0.5855316 0.004,0.029243 0.0309,0.2205787 0.0329,0.2429381 0.0175,0.1994804 -0.009,0.399955 0.007,0.5997833 5.1e-4,0.030669 0.005,0.2943495 0.004,0.3218375 -0.003,0.05703 -0.0133,0.11345 -0.0184,0.170325 -3.7e-4,0.004 -0.0226,0.319228 -0.0232,0.32276 -0.009,0.05511 -0.0287,0.108033 -0.0431,0.162049 -0.009,0.0435 -0.0198,0.08667 -0.0272,0.130483 -0.0168,0.100016 -0.0156,0.153723 -0.029,0.255296 -0.0256,0.194483 -0.0178,0.103225 -0.0588,0.297795 -0.0101,0.04782 -0.0177,0.09613 -0.0266,0.144193 -0.009,0.04806 -0.0135,0.09723 -0.0272,0.144189 -0.0175,0.06 -0.0848,0.204211 -0.10819,0.266887 -0.0388,0.103754 -0.0367,0.119909 -0.0671,0.224036 -0.012,0.04116 -0.0255,0.0819 -0.0382,0.122842 -0.0189,0.0411 -0.1006,0.22197 -0.1254,0.262126 -0.0728,0.117862 -0.0965,0.123991 -0.18676,0.220848 -0.12123,0.130076 -0.0209,0.03959 -0.15266,0.149302 -0.17722,0.119495 -0.34448,0.236943 -0.55158,0.301857 -0.1101,0.03762 -0.19321,0.05666 -0.31129,0.05509 -0.0358,-4.75e-4 -0.14287,-0.0061 -0.10711,-0.0061 3.5219,-0.0069 4.59705,-0.207504 3.39138,0.01252 -0.0573,0.03922 -0.0379,0.02481 -0.0889,0.06387 -0.0788,0.0605 -0.0968,0.04837 -0.13495,-0.04838 -0.0982,-0.232871 -0.12665,-0.48355 -0.12886,-0.734845 -0.008,-0.176088 -0.0181,-0.35264 -0.016,-0.528985 10e-4,-0.12138 0.009,-0.242613 0.0117,-0.363977 0.001,-0.05786 0.001,-0.115731 0.002,-0.173596 0.003,-0.230191 -0.002,-0.460776 -0.006,-0.690981 -0.001,-0.05935 -0.007,-0.118715 -0.005,-0.178037 0.002,-0.06109 0.0121,-0.121671 0.0181,-0.182507 0.006,-0.05485 0.0106,-0.109761 0.0167,-0.164548 0.006,-0.04938 0.0166,-0.09828 0.0184,-0.147947 0.003,-0.09171 -0.0179,-0.17622 -0.0243,-0.267141 -0.004,-0.05116 -0.003,-0.1025369 -0.004,-0.1538064 -0.001,-0.052675 -0.003,-0.1053513 -0.004,-0.1580269 -0.002,-0.1104277 -0.005,-0.2169638 -0.003,-0.3274552 0.002,-0.108412 0.0163,-0.216595 0.0138,-0.3249936 -0.002,-0.106454 -0.033,-0.2112889 -0.0222,-0.3186745 0.0192,-0.3057913 0.0476,-0.6125017 0.0249,-0.918877 -0.005,-0.2854353 0.0136,-0.5705293 0.0235,-0.8555438 0.003,-0.1914929 0.025,-0.38056 0.0442,-0.5708571 0,0 -3.73772,0.1734226 -3.73772,0.1734226 z" />
    <path
       style="fill:#f9ff00;fill-opacity:1"
       id="path76249"
       d="m 323.48367,6.4775415 c 0.0246,0.023212 0.0532,0.042857 0.0739,0.069636 0.0229,0.029585 0.0376,0.064649 0.0553,0.097571 0.0597,0.1109779 0.0996,0.1839452 0.1319,0.3106848 0.006,0.023733 0.0649,0.4064223 0.0668,0.4183182 0.0365,0.4010793 -0.0252,0.8020737 -0.0733,1.1995823 -0.004,0.055474 -0.008,0.1110034 -0.0131,0.1664223 -0.009,0.1009373 -0.0247,0.2012739 -0.0319,0.3023709 -0.0199,0.2813679 0.01,-0.00129 9.1e-4,0.3128859 -0.002,0.059317 -0.0101,0.1182478 -0.0152,0.1773717 -0.0525,0.3715623 -0.0923,0.7444234 -0.15439,1.1145414 -0.0526,0.18632 -0.0876,0.377229 -0.13663,0.564389 -0.0402,0.153473 -0.0948,0.302841 -0.14406,0.453519 -0.0452,0.127706 -0.0706,0.260397 -0.11382,0.388759 -0.0131,0.03889 -0.03,0.07645 -0.0424,0.11555 -0.003,0.0098 -0.0536,0.202713 -0.057,0.215621 -0.004,0.02277 -0.0351,0.201273 -0.042,0.225445 -0.0546,0.189951 -0.0203,-0.01091 -0.0639,0.183404 -0.0147,0.06553 -0.0226,0.132439 -0.0369,0.19806 -0.0258,0.109108 -0.055,0.223015 -0.0393,0.33621 0.004,0.02798 0.0364,0.150529 0.0453,0.18466 0.0185,0.07321 0.0328,0.148983 0.0641,0.2183 0.50764,1.123952 3.64231,0.172495 3.79062,0.173127 0.0241,-0.05135 0.0806,-0.07105 0.11452,-0.112418 0.0512,-0.06245 0.0685,-0.121016 0.10163,-0.193525 0.0795,-0.173734 0.0275,-0.04127 0.0963,-0.234662 0.0149,-0.04364 0.0279,-0.08796 0.0446,-0.130922 0.0351,-0.09008 0.0865,-0.173252 0.1206,-0.263718 0.0193,-0.05128 0.0306,-0.10524 0.0461,-0.157775 0.085,-0.286815 0.0164,-0.04725 0.10284,-0.354284 0.12793,-0.33381 0.22241,-0.678172 0.31292,-1.023502 0.007,-0.189391 0.0829,-0.37532 0.0931,-0.563604 0.002,-0.03581 -0.01,-0.240155 -0.0114,-0.275416 -0.005,-0.1364 -0.0335,-0.270496 -0.0468,-0.406028 -0.0107,-0.109464 -0.0113,-0.2182978 -0.0246,-0.3276414 0,0 -3.57546,0.06426 -3.57546,0.06426 v 0 c 0.026,0.1052374 0.0609,0.2093774 0.0841,0.3151304 0.0268,0.122283 0.0321,0.247663 0.0396,0.372145 0.0111,0.224241 0.005,0.0075 -0.002,0.231527 -0.005,0.173899 0.0146,0.349783 -0.0341,0.520126 -0.0781,0.555618 0.0438,-0.295688 -0.0492,0.298995 -0.008,0.05105 -0.01,0.103006 -0.0193,0.1538 -0.0328,0.176 -0.0923,0.347106 -0.14971,0.516046 -0.065,0.13198 -0.1032,0.213058 -0.17243,0.341135 -0.0253,0.04688 -0.0538,0.09205 -0.0786,0.139224 -0.0666,0.126749 -0.12044,0.261083 -0.21257,0.37304 -0.0638,0.07604 -0.12295,0.159581 -0.22395,0.188129 -0.0198,0.0056 -0.0412,0.0016 -0.0617,0.0029 -0.0893,0.0055 -0.0398,0.01299 -0.12878,-0.01825 1.19606,0.0081 2.3925,-0.0065 3.58819,0.02418 0.0253,6.49e-4 -0.0192,0.04756 -0.0351,0.06711 -0.0299,0.03658 -0.0825,0.01717 -0.11037,-0.0085 -0.0131,-0.01203 -0.0222,-0.0278 -0.0332,-0.0417 -0.0165,-0.0404 -0.0265,-0.05918 -0.0356,-0.09947 -0.0187,-0.08235 0.002,-0.168477 -0.004,-0.251893 0.0131,-0.141323 -0.001,-0.02693 0.0281,-0.170945 0.0278,-0.136171 0.0328,-0.276368 0.0758,-0.409737 0.01,-0.04466 0.037,-0.170311 0.0437,-0.215722 0.005,-0.03662 0.006,-0.07388 0.0114,-0.110469 0.0233,-0.151022 0.0255,-0.106756 0.0635,-0.260729 0.0113,-0.04561 0.0194,-0.09195 0.0291,-0.137925 0.002,-0.01733 0.0371,-0.290038 0.0378,-0.296346 0.006,-0.05519 0.008,-0.110834 0.0161,-0.165825 0.0266,-0.189234 0.0738,-0.375662 0.0977,-0.56543 0.0126,-0.05199 0.0854,-0.349096 0.096,-0.405272 0.0117,-0.06172 0.0168,-0.124521 0.0268,-0.186518 0.0297,-0.1821158 0.0638,-0.3633722 0.0792,-0.5476123 0.0104,-0.061816 0.0209,-0.1236314 0.0313,-0.1854471 0.0139,-0.059431 0.0309,-0.1182142 0.0417,-0.1782915 0.037,-0.2066378 -0.004,-0.4135348 0.01,-0.6217279 -0.004,-0.1863043 -0.009,-0.3725537 -0.0161,-0.5587552 -0.006,-0.1463058 -0.0188,-0.2923453 -0.0217,-0.4387416 -0.002,-0.079843 0.002,-0.1597097 0.003,-0.2395645 0.002,-0.076583 0.006,-0.1531369 0.007,-0.2297505 3.5e-4,-0.069932 -0.006,-0.1398526 -0.004,-0.2097524 0.003,-0.082036 0.027,-0.2756213 0.0302,-0.3648553 10e-4,-0.038126 -0.007,-0.076426 -0.003,-0.1144096 0.003,-0.03078 0.0149,-0.060002 0.0224,-0.090003 0,0 -3.70495,0.1329795 -3.70495,0.1329795 z" />
    <path
       style="fill:#f9ff00;fill-opacity:1"
       id="path76994"
       d="m 400.01912,7.3620019 c -0.004,0.050978 -0.004,0.10272 -0.0134,0.1529332 -0.0136,0.069139 -0.0393,0.1353572 -0.0567,0.2036521 -0.0537,0.2115717 -0.10149,0.4625112 -0.17164,0.6665595 -0.0806,0.2344244 -0.21546,0.5022484 -0.32201,0.7261825 -0.11825,0.254005 -0.27335,0.4898293 -0.38528,0.7469556 -0.0637,0.1463782 -0.11034,0.3018632 -0.15581,0.4546682 -0.0618,0.227316 -0.0235,0.459489 0.002,0.689396 0.0908,0.440244 0.0898,0.891486 0.11092,1.338577 0.003,0.09755 0.0149,0.182906 -0.0102,0.277799 -0.0339,0.128124 -0.21231,0.274094 -0.30223,0.367925 -0.0799,0.07537 -0.24123,0.264812 -0.36132,0.275115 -0.035,0.003 -0.13385,-0.03687 -0.0987,-0.03704 3.40386,-0.01656 4.77302,0.23093 3.53774,0.01047 -0.0203,-0.03521 -0.0475,-0.06723 -0.0608,-0.10562 -0.1128,-0.32652 -0.0357,-0.754558 0.009,-1.088306 0.0472,-0.194787 0.0716,-0.393769 0.0992,-0.591919 0.0184,-0.132344 0.0329,-0.202665 0.0359,-0.33604 0.001,-0.06006 -0.003,-0.120121 -0.004,-0.180181 0.0189,-0.280358 0.0267,-0.568143 -0.0374,-0.84398 -0.0141,-0.06077 -0.0338,-0.1201074 -0.0507,-0.1801612 -0.0795,-0.3333032 -0.17901,-0.6607089 -0.25045,-0.9957609 -0.053,-0.2438388 -0.082,-0.4912029 -0.11501,-0.7381844 -0.017,-0.2780737 -0.0146,-0.556741 -0.006,-0.8350468 0.0171,-0.1647448 0.0608,-0.3422722 0.19034,-0.4574877 0.0212,-0.018882 0.0469,-0.032075 0.0703,-0.048112 0.0277,-0.013943 0.054,-0.031228 0.0832,-0.041829 0.17705,-0.064327 0.47121,-0.068917 0.65733,-0.061522 -1.10856,0.00287 -2.21713,0.00211 -3.32568,0.00862 -0.0535,3.142e-4 0.10708,0.00346 0.16017,0.00998 0.0501,0.00615 0.10044,0.013673 0.14887,0.02797 0.14239,0.042041 0.25069,0.1231825 0.36125,0.2175538 0.0911,0.1031629 0.1778,0.216372 0.23446,0.3430196 0.045,0.1004701 0.0729,0.2268009 0.10588,0.3309301 0.0204,0.064466 0.0436,0.1280395 0.0654,0.1920592 0.0171,0.068649 0.0354,0.1370248 0.0514,0.2059476 0.0158,0.068194 0.026,0.1377092 0.0441,0.2053463 0.0696,0.2608084 0.16626,0.5148505 0.23153,0.7770937 0.0239,0.096015 0.0402,0.193774 0.0602,0.290661 0.0549,0.4515395 0.084,0.9068517 0.0966,1.3615557 0.0193,0.392031 -0.006,0.783582 -0.0118,1.175449 -0.0245,0.325366 0.039,0.649114 0.0744,0.9717 0.0441,0.210315 0.0612,0.426454 0.1358,0.629031 0.0707,0.166573 0.185,0.324835 0.34887,0.410943 0.0355,0.01864 0.0736,0.03161 0.11047,0.04742 1.33402,0.317394 0.26748,0.07538 3.83407,0.03704 0.0514,-5.53e-4 0.099,-0.02779 0.14787,-0.04391 0.17393,-0.05746 0.32924,-0.131623 0.48771,-0.222567 0.0454,-0.03276 0.0954,-0.06002 0.13624,-0.0983 0.1066,-0.09984 0.21769,-0.270557 0.27749,-0.404104 0.0247,-0.05527 0.0745,-0.214523 0.0941,-0.275437 0.0869,-0.351271 0.046,-0.718707 0.0133,-1.07466 -0.01,-0.09342 -0.0248,-0.186425 -0.0288,-0.280246 -0.004,-0.09112 0.004,-0.182379 0.005,-0.273585 8.5e-4,-0.09112 1e-4,-0.18224 1.4e-4,-0.27336 -0.002,-0.09401 -0.007,-0.187993 -0.007,-0.282026 0.003,-1.1185455 0.0167,0.585704 0.005,-0.544166 -0.0352,-0.500467 0.042,-0.9994892 0.0355,-1.4997694 -0.007,-0.1861461 0.0336,-0.3692752 0.0435,-0.5542098 0.003,-0.053234 -0.001,-0.1066487 7.5e-4,-0.1599265 0.002,-0.048812 0.0114,-0.097382 0.01,-0.1461964 -0.002,-0.057289 -0.0135,-0.1138462 -0.0202,-0.1707693 -0.035,-0.3156446 -0.13624,-0.6202742 -0.23939,-0.9193737 -0.0566,-0.1414385 -0.0269,-0.073497 -0.0884,-0.2041093 0,0 -3.63299,0.2056648 -3.63299,0.2056648 v 0 c 0.0839,0.098393 0.0423,0.046264 0.12414,0.1569242 0.14967,0.2399386 0.24891,0.5054929 0.28226,0.7876122 0.005,0.1928881 2.9e-4,0.096131 0.0133,0.2902656 0.002,0.053285 -0.002,0.1067063 7.6e-4,0.1599472 0.01,0.1849693 0.0503,0.3681211 0.0437,0.5543024 -0.006,0.5004428 0.0718,0.999439 0.0381,1.500114 -6.8e-4,0.09124 -10e-4,0.182473 -0.002,0.273709 0.003,0.09007 0.008,0.180096 0.009,0.27021 4.1e-4,0.09388 -0.004,0.187725 -0.006,0.281587 -7e-5,0.09084 -7.1e-4,0.181679 -2e-4,0.272517 5.1e-4,0.09074 0.008,0.181596 0.003,0.272207 -0.005,0.09287 -0.0219,0.184711 -0.0328,0.277067 -0.0411,0.323219 -0.0692,0.651032 -0.16752,0.963397 -0.086,0.242639 -0.19388,0.394444 -0.43896,0.498432 -0.15433,0.05881 -0.30409,0.101234 -0.47032,0.112343 -0.0577,0.0039 -0.23126,6.47e-4 -0.17344,8.58e-4 3.43466,0.01253 4.53474,-0.152861 3.30567,0.02609 -0.14212,0.0024 -0.30443,0.0015 -0.40034,-0.119405 -0.088,-0.176025 -0.17393,-0.353384 -0.21301,-0.548271 -0.0807,-0.294336 -0.13046,-0.598819 -0.13702,-0.904319 -0.005,-0.396997 -0.0264,-0.793767 -0.0311,-1.190756 -0.0122,-0.219106 -0.0188,-0.443085 -0.0527,-0.660225 -0.0397,-0.2538565 -0.11906,-0.5006248 -0.1699,-0.7520825 -0.0732,-0.3890487 -0.0425,-0.199634 -0.0958,-0.5859255 -7.1e-4,-0.00515 -0.0646,-0.4710215 -0.0689,-0.4939877 -0.026,-0.1388597 -0.0754,-0.2728029 -0.09,-0.4141179 -0.01,-0.069682 -0.0149,-0.1400949 -0.0288,-0.209045 -0.0245,-0.1217163 -0.0684,-0.2387669 -0.099,-0.3591084 -0.0161,-0.063396 -0.0237,-0.1291391 -0.0449,-0.1910271 -0.0464,-0.1355368 -0.0911,-0.1815703 -0.17209,-0.2957275 -0.12205,-0.1518232 -0.22516,-0.262598 -0.3902,-0.3698919 -0.0824,-0.053542 -0.22585,-0.1454833 -0.33205,-0.1472919 -1.22294,-0.020828 -2.44623,-0.00864 -3.66934,-0.012959 -0.32022,0.043092 -0.63796,0.1108251 -0.85414,0.37296 -0.0251,0.037841 -0.0532,0.073906 -0.0754,0.1135233 -0.0775,0.1382095 -0.14717,0.3713004 -0.16246,0.5276634 -0.004,0.04312 0.002,0.08663 0.003,0.1299444 0.008,0.2852814 0.009,0.5706561 0.0158,0.8559644 -7e-4,0.06651 -0.005,0.2137431 0.003,0.282288 0.005,0.040981 0.0169,0.080769 0.0248,0.1212496 0.0267,0.1359218 0.0567,0.2702911 0.10253,0.4014584 0.0936,0.3280982 0.22396,0.6463528 0.2902,0.9819943 0.0215,0.1542956 0.0544,0.3079456 0.07,0.4629566 0.0116,0.115172 0.0104,0.192905 0.0121,0.309393 7.9e-4,0.05548 0.001,0.110951 0.002,0.166426 -0.0324,0.358671 -0.0218,0.719647 -0.0483,1.078944 -0.0486,0.461232 -0.0977,0.922436 -0.13564,1.384708 0.2163,1.39163 -0.0177,0.264255 3.7321,0.292803 0.0346,2.63e-4 0.0334,-0.06068 0.053,-0.08914 0.0845,-0.122509 0.19463,-0.225093 0.29676,-0.332107 0.17392,-0.181253 0.34076,-0.373375 0.35241,-0.639684 0.005,-0.118866 -0.0304,-0.219223 -0.0601,-0.33182 -0.017,-0.05965 -0.0374,-0.118437 -0.051,-0.178945 -0.0824,-0.365856 -0.065,-0.740899 0.008,-1.106686 0.0206,-0.21008 0.0462,-0.420547 0.0342,-0.631663 -0.005,-0.3827147 0.0753,-0.7623937 0.17274,-1.130705 0.0963,-0.2822565 0.14123,-0.4488826 0.28515,-0.7177031 0.12727,-0.2377214 0.26627,-0.421355 0.43021,-0.6307703 0.0481,-0.061468 0.0933,-0.1259466 0.14885,-0.1807958 0.0428,-0.042217 0.096,-0.072265 0.14402,-0.1083978 0,0 -3.68738,-0.2376111 -3.68738,-0.2376111 z" />
  </g>
</svg>
