<?xml version="1.0" encoding="UTF-8" standalone="no"?>
<!-- Created with Inkscape (http://www.inkscape.org/) -->

<svg
   version="1.1"
   id="svg67722"
   width="490.66666"
   height="20"
   viewBox="0 0 490.66666 20"
   sodipodi:docname="7doc_banner_2nd.svg"
   inkscape:version="1.2 (dc2aedaf03, 2022-05-15)"
   xmlns:inkscape="http://www.inkscape.org/namespaces/inkscape"
   xmlns:sodipodi="http://sodipodi.sourceforge.net/DTD/sodipodi-0.dtd"
   xmlns="http://www.w3.org/2000/svg"
   xmlns:svg="http://www.w3.org/2000/svg">
  <defs
     id="defs67726" />
  <sodipodi:namedview
     id="namedview67724"
     pagecolor="#ffffff"
     bordercolor="#000000"
     borderopacity="0.25"
     inkscape:showpageshadow="2"
     inkscape:pageopacity="0.0"
     inkscape:pagecheckerboard="0"
     inkscape:deskcolor="#d1d1d1"
     showgrid="false"
     inkscape:zoom="28.537742"
     inkscape:cx="88.654528"
     inkscape:cy="9.2509072"
     inkscape:window-width="1366"
     inkscape:window-height="705"
     inkscape:window-x="-8"
     inkscape:window-y="-8"
     inkscape:window-maximized="1"
     inkscape:current-layer="g67728" />
  <g
     inkscape:groupmode="layer"
     inkscape:label="Image"
     id="g67728">
    <path
       id="rect68350"
       style="fill:#f9ff00;fill-opacity:1;stroke-width:9.05192"
       d="M 83.896484,5 C 83.760625,5 83.650391,5.1102345 83.650391,5.2460938 V 9 H 14.769531 V 5.71875 C 14.769531,5.5975626 14.671971,5.5 14.550781,5.5 H 5.96875 C 5.8475626,5.5 5.75,5.5975626 5.75,5.71875 v 8.482422 c 0,0.121187 0.097563,0.21875 0.21875,0.21875 h 8.582031 c 0.121188,0 0.21875,-0.09756 0.21875,-0.21875 V 11 h 68.88086 v 3.753906 c 0,0.13586 0.110234,0.246094 0.246093,0.246094 h 9.507813 c 0.13586,0 0.246094,-0.110234 0.246094,-0.246094 V 11 H 162.25 v 3.753906 C 162.25,14.889766 162.36023,15 162.49609,15 h 9.50782 c 0.13586,0 0.24609,-0.110234 0.24609,-0.246094 V 11 h 68 v 3.753906 C 240.25,14.889766 240.36023,15 240.49609,15 h 9.50782 c 0.13586,0 0.24609,-0.110234 0.24609,-0.246094 V 11 h 68.15039 v 3.753906 c 0,0.13586 0.11023,0.246094 0.24609,0.246094 h 9.50782 c 0.13586,0 0.24609,-0.110234 0.24609,-0.246094 V 11 H 397 v 3.753906 C 397,14.889766 397.11023,15 397.24609,15 h 9.50782 C 406.88977,15 407,14.889766 407,14.753906 V 11 h 68.5 v 3.753906 C 475.5,14.889766 475.61023,15 475.74609,15 h 9.50782 C 485.38977,15 485.5,14.889766 485.5,14.753906 V 5.2460938 C 485.5,5.1102345 485.38977,5 485.25391,5 h -9.50782 C 475.61023,5 475.5,5.1102345 475.5,5.2460938 V 9 H 407 V 5.2460938 C 407,5.1102345 406.88977,5 406.75391,5 h -9.50782 C 397.11023,5 397,5.1102345 397,5.2460938 V 9 H 328.40039 V 5.2460938 C 328.40039,5.1102339 328.29016,5 328.1543,5 h -9.50782 c -0.13586,0 -0.24609,0.1102339 -0.24609,0.2460938 V 9 H 250.25 V 5.2460938 C 250.25,5.1102345 250.13977,5 250.00391,5 h -9.50782 C 240.36023,5 240.25,5.1102345 240.25,5.2460938 V 9 h -68 V 5.2460938 C 172.25,5.1102346 172.13977,5 172.00391,5 h -9.50782 C 162.36023,5 162.25,5.1102346 162.25,5.2460938 V 9 H 93.650391 V 5.2460938 C 93.650391,5.1102345 93.540157,5 93.404297,5 Z m 1.503907,1.75 h 6.5 v 6.5 h -6.5 z M 164,6.75 h 6.5 v 6.5 H 164 Z m 78,0 h 6.5 v 6.5 H 242 Z m 78.15039,0 h 6.5 v 6.5 h -6.5 z m 78.59961,0 h 6.5 v 6.5 h -6.5 z m 78.5,0 h 6.5 v 6.5 h -6.5 z" />
    <path
       style="fill:#f9ff00;fill-opacity:1;stroke-width:0.0991118"
       d="M 85.434377,10.010292 V 6.8387146 h 3.221134 3.221134 v 3.1715774 3.171578 h -3.221134 -3.221134 z"
       id="path73962" />
    <path
       style="fill:#f9ff00;fill-opacity:1"
       id="path74015"
       d="m 86.100737,9.2038372 c -0.01911,0.05003 -0.02589,0.1036982 -0.0427,0.1543731 -0.01949,0.058767 -0.07681,0.1828917 -0.09948,0.2377306 -0.0582,0.1408064 -0.06022,0.152901 -0.111127,0.2978204 -0.04816,0.1258057 -0.08982,0.2537697 -0.130491,0.3821167 -0.01672,0.05276 -0.04424,0.129738 -0.05348,0.185633 -0.0052,0.03145 -0.0054,0.06353 -0.0081,0.0953 -5.63e-4,0.09999 -0.02441,0.197872 -0.03326,0.296963 -0.0072,0.08033 0.0057,0.01664 -0.0072,0.07245 -0.0092,0.02193 -0.0021,0.04629 -0.0077,0.0686 -0.02434,0.09675 -0.116496,0.170734 -0.185454,0.23496 -0.106456,0.08463 -0.227788,0.145655 -0.348099,0.207379 -0.02603,0.01336 -0.05454,0.02282 -0.07793,0.04038 -0.02996,0.0225 -0.05361,0.05235 -0.08041,0.07852 -0.117124,0.153755 -0.205813,0.327562 -0.285476,0.503151 -0.03582,0.09013 -0.06435,0.188843 -0.06812,0.286597 -0.0017,0.04405 0.0082,0.101015 0.01435,0.144799 0.288985,1.272674 0.0073,0.114276 3.215321,1.923087 0.0044,0.0025 0.140378,-0.01643 0.143131,-0.0167 0.04691,-0.0046 0.104435,-0.0061 0.151435,-0.0079 0.130589,0.0041 0.259752,0.01001 0.389725,-0.0053 0.04897,-0.0058 0.09865,0.0033 0.14763,-0.0015 0.02666,-0.0026 0.0524,-0.01169 0.07902,-0.01464 0.03347,-0.0037 0.06751,-8.71e-4 0.100891,-0.0053 0.08598,-0.01145 0.170236,-0.03343 0.255577,-0.04895 0.368916,-0.07245 0.724735,-0.190944 1.088705,-0.28264 0.378313,-0.09609 -0.01424,0.0067 0.341681,-0.09538 0.04716,-0.01353 0.09556,-0.0227 0.142313,-0.03758 0.111034,-0.03534 0.218185,-0.08749 0.325527,-0.132504 0.132533,-0.07425 0.251189,-0.169826 0.380525,-0.248929 0.269176,-0.164633 -0.05171,0.04672 0.217791,-0.134274 0.118351,-0.08713 0.238994,-0.171992 0.344285,-0.275249 0.07457,-0.07313 0.160109,-0.177487 0.230843,-0.253557 0.03848,-0.04138 0.07874,-0.08106 0.118108,-0.121584 0,0 -2.95506,-1.791929 -2.95506,-1.791929 v 0 c -0.03268,0.03859 -0.06265,0.07965 -0.09805,0.115771 -0.169889,0.173385 -0.386261,0.298114 -0.595422,0.416722 -0.03762,0.02054 -0.07524,0.04108 -0.112858,0.06162 -0.03525,0.02119 -0.06972,0.04373 -0.105748,0.06356 -0.133782,0.07364 -0.277421,0.128263 -0.412824,0.198682 -0.181743,0.105939 0.03242,-0.0168 -0.173852,0.094 -0.149052,0.08007 -0.290911,0.173273 -0.45573,0.220757 -0.05495,0.019 -0.108972,0.04093 -0.164851,0.057 -0.144173,0.04145 -0.247212,0.0564 -0.396004,0.07785 -0.09888,0.01425 -0.268232,0.03559 -0.369216,0.04113 -0.05826,0.0032 -0.116678,0.0019 -0.175017,0.0028 -0.338236,-0.01102 0.0096,0.0039 -0.312305,-0.0202 -0.03842,-0.0029 -0.07708,-0.0018 -0.115479,-0.005 -0.04003,-0.0033 -0.07958,-0.01132 -0.11964,-0.01419 -0.05003,-0.0036 -0.100445,0.0044 -0.15047,-2.53e-4 -0.125394,-0.01026 -0.249856,-0.008 -0.375402,-0.01103 -0.07066,-0.01093 -0.139152,-0.0203 -0.200651,-0.06027 -0.0166,-0.01079 -0.06242,-0.04836 -0.04529,-0.03843 3.126282,1.811985 4.254691,1.517009 3.042678,1.81974 -0.01133,-0.0019 -0.104742,-0.02118 -0.11251,-0.02773 -0.03244,-0.02734 -0.0061,-0.09315 -0.01351,-0.126774 0.01153,-0.130432 0.04987,-0.259643 0.156056,-0.344597 0.150038,-0.112362 0.298528,-0.226583 0.443582,-0.345338 0.13347,-0.09883 0.319052,-0.244003 0.402276,-0.390732 0.01197,-0.0211 0.01719,-0.04537 0.02578,-0.06805 0.0072,-0.04112 0.02012,-0.102356 0.01947,-0.144854 -0.0015,-0.09546 -0.03685,-0.203079 -0.02447,-0.301316 0.0062,-0.209551 -0.02534,-0.41901 0.04295,-0.623814 0.05141,-0.129071 0.09105,-0.214516 0.18702,-0.317993 0.02304,-0.02484 0.04578,-0.05111 0.07438,-0.06929 0.03725,-0.02368 0.08728,-0.02054 0.124162,-0.04602 0,0 -3.181818,-1.9498208 -3.181818,-1.9498208 z" />
    <path
       style="fill:#f9ff00;fill-opacity:1"
       id="path74017"
       d="m 92.068758,14.363065 c 0.02499,-0.05904 0.04706,-0.119396 0.07497,-0.177115 0.02873,-0.05944 0.06696,-0.114035 0.09473,-0.173927 0.03424,-0.07385 0.188962,-0.473639 0.213923,-0.533957 0.09702,-0.234435 0.135086,-0.309788 0.240359,-0.535373 0.06884,-0.219644 0.172868,-0.423743 0.242754,-0.642857 0.01617,-0.05068 0.03383,-0.101165 0.04436,-0.153313 0.02489,-0.123266 0.01666,-0.180866 0.01385,-0.305428 -0.04598,-0.28316 -0.06565,-0.568352 -0.05582,-0.854931 0.02172,-0.248234 -0.0063,-0.495356 -0.04487,-0.740302 -0.0038,-0.05913 -0.0055,-0.118433 -0.01144,-0.177382 -0.02317,-0.228969 -0.03939,-0.2163506 -0.04728,-0.4522557 -0.0024,-0.072957 0.0018,-0.1459875 0.0035,-0.2189643 0.01571,-0.6570405 -0.0013,0.2332479 0.01044,-0.4174646 0.02741,-0.2735999 0.05901,-0.5464096 0.09459,-0.8190527 1.82e-4,-0.1694338 0.01821,-0.3379497 0.02942,-0.5067214 -0.0017,-0.096135 -0.0026,-0.049118 0.0021,-0.1410578 0,0 -3.243348,-1.6525645 -3.243348,-1.6525645 v 0 c 0.0046,0.094977 0.0038,0.047245 0.0021,0.1431973 0.01112,0.1787689 0.02873,0.3573019 0.0294,0.5366539 0.03506,0.3047362 0.06667,0.6096147 0.09421,0.9151334 0.01129,0.6689845 -0.0052,-0.2550713 0.01008,0.4278849 0.0017,0.074152 0.006,0.1483625 0.0033,0.2224858 -0.0085,0.2382406 -0.02227,0.1795983 -0.0476,0.4041595 -0.0062,0.055183 -0.0076,0.1108077 -0.01137,0.1662115 -0.04388,0.2398666 -0.06411,0.4820457 -0.02356,0.7244279 0.03612,0.2925385 0.06732,0.5856988 0.08344,0.8800788 0.05192,0.363647 0.115758,0.732077 -1.96e-4,1.091525 -0.02552,0.08492 -0.04406,0.172248 -0.07655,0.25475 -0.101286,0.257211 -0.237175,0.447206 -0.475662,0.590944 -0.04874,0.02938 -0.09907,0.06353 -0.155572,0.07033 -0.04297,0.0052 -0.08306,-0.0244 -0.124584,-0.03661 0,0 3.030251,2.111496 3.030251,2.111496 z" />
    <path
       style="fill:#f9ff00;fill-opacity:1"
       id="path74019"
       d="m 90.219157,5.2741056 c -0.01517,0.042549 -0.02072,0.089889 -0.04552,0.127646 -0.03378,0.051432 -0.08239,0.091555 -0.126588,0.1343713 -0.104595,0.1013228 -0.258957,0.2343289 -0.381685,0.3086237 -0.165819,0.1003807 -0.302418,0.141742 -0.481416,0.2079498 -0.281575,0.082611 -0.564721,0.1714319 -0.859457,0.1855203 -0.145553,0.00283 -0.290644,-0.010634 -0.435781,-0.0194 -0.06879,-0.00489 -0.136701,-0.019562 -0.205306,-0.025611 -0.02412,-0.00213 -0.12339,-0.00304 -0.147049,-0.00832 -0.02072,-0.00463 -0.03925,-0.01619 -0.05888,-0.024284 -0.06821,-0.015931 -0.132177,-0.051757 -0.201602,-0.063188 -0.07945,-0.013082 -0.167953,-0.0049 -0.248045,-0.00459 -0.198749,0.00252 -0.397323,0.00118 -0.59616,0.00504 -0.134229,-0.00697 -0.267757,-0.00165 -0.401773,0.00425 -0.03675,0.00162 -0.07371,-6.656e-4 -0.110317,0.00293 -0.04089,0.00401 -0.08111,0.013231 -0.121663,0.019847 -0.124702,0.026754 -0.248102,0.060082 -0.372736,0.087003 -0.05198,0.011228 -0.163077,0.026569 -0.214898,0.046852 -0.03448,0.013496 -0.06529,0.034944 -0.09794,0.052416 -0.09096,0.072324 -0.19237,0.1364939 -0.271412,0.2229376 -0.08476,0.092693 -0.142914,0.2083252 -0.205872,0.3158053 -0.0874,0.1364456 -0.172769,0.274168 -0.236407,0.4234058 -0.01533,0.035942 -0.03494,0.070588 -0.04433,0.1085161 -0.0119,0.048078 -0.01269,0.098243 -0.01903,0.1473648 -0.0021,0.054259 -0.0028,0.108586 -0.0062,0.1627773 -0.0078,0.1236079 -0.02036,0.1750942 -0.02278,0.2988064 -0.0011,0.054523 0.0029,0.1090359 0.0032,0.1635682 0.0032,0.5575497 -0.0067,-0.226507 5.35e-4,0.2912467 0.02869,0.2462102 0.104549,0.4832309 0.15196,0.7259411 0.02191,0.1121581 0.04468,0.2673377 0.06216,0.3809281 0.03274,0.16675 0.05153,0.3357005 0.07773,0.5034809 0.0074,0.04738 0.01777,0.09429 0.02387,0.141855 0.0097,0.07552 0.01271,0.151758 0.01987,0.227564 0.0081,0.17174 0.01812,0.343502 0.0186,0.515474 0.0078,0.130046 0.01427,0.266919 -0.016,0.395226 -0.0076,0.03239 -0.01896,0.0638 -0.02844,0.0957 0,0 3.338681,1.555206 3.338681,1.555206 v 0 c -0.0205,0.002 -0.04637,0.01994 -0.06151,0.006 -0.01732,-0.01598 -0.0056,-0.04679 -0.0081,-0.07023 -0.01237,-0.115803 -0.01964,-0.232124 -0.0077,-0.348398 -0.0048,-0.199564 -0.0074,-0.399842 -0.0575,-0.594703 -0.07118,-0.316834 -0.181763,-0.623239 -0.245775,-0.941865 -0.03037,-0.137542 -0.0557,-0.240773 -0.07629,-0.380438 -0.03164,-0.214618 -0.0338,-0.432117 -0.0617,-0.647116 -0.006,-0.042456 -0.03415,-0.2367667 -0.03616,-0.2789858 -0.0022,-0.046847 0.002,-0.09378 0.0034,-0.1406564 0.0041,-0.1322975 0.0019,-0.2668883 0.043,-0.3943779 0.01,-0.030793 0.01996,-0.061586 0.02994,-0.092378 0.0073,-0.029941 0.01268,-0.06045 0.02204,-0.089822 0.0425,-0.1333191 0.116339,-0.2552376 0.187965,-0.3742256 0.108066,-0.141319 0.229994,-0.2831047 0.406908,-0.3341935 0.08259,-0.021294 0.160725,-0.053657 0.242692,-0.076264 0.111341,-0.030709 0.22701,-0.043437 0.342312,-0.041169 0.212396,0.00555 0.424567,0.017687 0.637048,0.00983 0.199697,0.00576 0.401109,0.0063 0.598376,0.040836 0.155229,0.033161 0.302602,0.097488 0.462909,0.1049353 0.154918,-5.078e-4 0.308271,0.0223 0.463416,0.021191 0.04373,-0.00294 0.08771,-0.00307 0.131224,-0.00828 0.104646,-0.012519 0.207855,-0.044026 0.308548,-0.073225 0.241019,-0.1076991 0.449365,-0.2685839 0.664851,-0.4191904 0.145695,-0.1054739 0.245844,-0.1851517 0.408923,-0.2702903 0.08973,-0.046847 0.184081,-0.084309 0.277045,-0.1243641 0.05268,-0.022699 0.388011,-0.1623355 0.463259,-0.181471 0.06768,-0.017211 0.138342,-0.019203 0.207513,-0.028805 0,0 -3.085964,-1.9851786 -3.085964,-1.9851786 z" />
  </g>
</svg>
